<?xml version="1.0" encoding="utf-8"?>
<!DOCTYPE svg PUBLIC "-//W3C//DTD SVG 1.1//EN" "http://www.w3.org/Graphics/SVG/1.1/DTD/svg11.dtd">
<svg version="1.1" id="Layer_1" xmlns="http://www.w3.org/2000/svg" xmlns:xlink="http://www.w3.org/1999/xlink" x="0px" y="0px"
	 width="215.999px" height="216px" viewBox="0 0 215.999 216" enable-background="new 0 0 215.999 216" xml:space="preserve">
<g>
	<path fill="#151515" d="M200,0H15.943C7.144,0-0.001,6.977-0.001,15.562v184.852c0,8.602,7.145,15.586,15.944,15.586H200
		c8.809,0,15.999-6.984,15.999-15.586V15.562C215.999,6.977,208.809,0,200,0z M64.06,184.062H32.009V80.984H64.06V184.062z
		 M48.036,66.891c-10.27,0-18.57-8.324-18.57-18.582c0-10.246,8.301-18.57,18.57-18.57c10.242,0,18.566,8.324,18.566,18.57
		C66.603,58.566,58.278,66.891,48.036,66.891z M184.048,184.062h-32v-50.125c0-11.961-0.234-27.336-16.652-27.336
		c-16.672,0-19.215,13.023-19.215,26.469v50.992H84.153V80.984h30.734v14.078h0.438c4.277-8.102,14.73-16.648,30.316-16.648
		c32.418,0,38.406,21.344,38.406,49.109V184.062z"/>
</g>
</svg>
