<?xml version="1.0" encoding="utf-8"?>
<svg version="1.1" id="Layer_1" xmlns="http://www.w3.org/2000/svg" xmlns:xlink="http://www.w3.org/1999/xlink" x="0px" y="0px"
	 viewBox="0 0 301.4 46.3" style="enable-background:new 0 0 301.4 46.3;" xml:space="preserve">
<g>
	<path  d="M33,16.4h-2.7l-0.5-6.5c-1.1-1.3-2.6-2.4-4.4-3.3s-3.9-1.2-6.3-1.2c-4.8,0-8.6,1.7-11.4,5.2s-4.2,7.9-4.2,13.4
		v0.6c0,5.5,1.4,10,4.2,13.5s6.4,5.2,11,5.2c2.4,0,4.6-0.4,6.5-1.3s3.5-1.9,4.6-3.3l0.5-6.5H33v7.5c-1.3,1.8-3.3,3.4-5.8,4.6
		s-5.4,1.8-8.6,1.8c-5.5,0-9.9-2-13.4-6.1C1.7,36.2,0,31,0,24.7v-0.6c0-6.3,1.7-11.5,5.2-15.6c3.5-4.1,8-6.1,13.6-6.1
		c3.2,0,6,0.6,8.5,1.9s4.4,2.8,5.7,4.6V16.4z"/>
	<path  d="M36.8,2.6V0h8.3v42.7l4.8,0.4v2.6h-13v-2.6l4.8-0.4V3L36.8,2.6z"/>
	<path  d="M66.6,46.3c-4,0-7.3-1.5-9.9-4.4c-2.6-2.9-3.9-6.6-3.9-11.1v-1.6c0-4.5,1.3-8.3,3.9-11.3s5.8-4.5,9.4-4.5
		c3.9,0,6.9,1.2,9.2,3.7s3.3,5.7,3.3,9.8v3H56.2v0.8c0,3.6,1,6.5,2.9,9s4.4,3.6,7.5,3.6c2.2,0,4-0.3,5.6-0.9c1.5-0.6,2.9-1.5,4-2.6
		l1.5,2.4c-1.2,1.2-2.7,2.2-4.5,3S69.1,46.3,66.6,46.3z M66.1,16.4c-2.6,0-4.8,1-6.5,3c-1.8,2-2.8,4.5-3.1,7.5l0.1,0.1h18.6v-0.9
		c0-2.8-0.8-5.1-2.4-6.9C71.1,17.3,68.9,16.4,66.1,16.4z"/>
	<path  d="M92,16.6l-4,0.3L96,37.8l1,3.7h0.2l1.1-3.7l7.8-20.9l-4-0.3V14h10.7v2.6l-3.1,0.3L98.5,45.7h-2.8L84.5,16.9
		l-3.1-0.3V14H92V16.6z"/>
	<path  d="M128.3,46.3c-4,0-7.3-1.5-9.9-4.4c-2.6-2.9-3.9-6.6-3.9-11.1v-1.6c0-4.5,1.3-8.3,3.9-11.3s5.8-4.5,9.4-4.5
		c3.9,0,6.9,1.2,9.2,3.7s3.3,5.7,3.3,9.8v3H118v0.8c0,3.6,1,6.5,2.9,9s4.4,3.6,7.5,3.6c2.2,0,4-0.3,5.6-0.9c1.5-0.6,2.9-1.5,4-2.6
		l1.5,2.4c-1.2,1.2-2.7,2.2-4.5,3S130.8,46.3,128.3,46.3z M127.8,16.4c-2.6,0-4.8,1-6.5,3c-1.8,2-2.8,4.5-3.1,7.5l0.1,0.1h18.6v-0.9
		c0-2.8-0.8-5.1-2.4-6.9C132.8,17.3,130.6,16.4,127.8,16.4z"/>
	<path  d="M152.5,14l0.4,5.3v0.4c0.9-2,2.1-3.5,3.7-4.6s3.4-1.7,5.5-1.7c0.4,0,0.9,0,1.3,0.1c0.4,0.1,0.8,0.1,1,0.2
		L164,17l-2.6-0.2c-2.2,0-4,0.6-5.4,1.9c-1.4,1.2-2.4,2.9-3,5.1v18.9l4.8,0.4v2.6h-13v-2.6l4.8-0.4V17l-4.8-0.4V14h4.8H152.5z"/>
	<path  d="M206.9,3v2.6L202.1,6v39.7h-3.5L174.4,9l-0.2,0v33.7l4.8,0.4v2.6h-13.1v-2.6l4.8-0.4V6l-4.8-0.4V3h4.8h3.5
		l24.2,36.6l0.2,0V6l-4.8-0.4V3h8.3H206.9z"/>
	<path  d="M209.7,29.4c0-4.7,1.3-8.5,3.8-11.5s5.9-4.5,10.2-4.5c4.2,0,7.6,1.5,10.2,4.5s3.8,6.8,3.8,11.5v1
		c0,4.7-1.3,8.5-3.8,11.5s-5.9,4.5-10.2,4.5c-4.3,0-7.7-1.5-10.2-4.5s-3.8-6.8-3.8-11.5V29.4z M213.2,30.4c0,3.7,0.9,6.8,2.8,9.3
		s4.4,3.8,7.8,3.8c3.3,0,5.8-1.2,7.7-3.8s2.8-5.6,2.8-9.3v-1c0-3.6-0.9-6.7-2.8-9.2s-4.4-3.8-7.7-3.8s-5.8,1.3-7.7,3.8
		s-2.8,5.6-2.8,9.2V30.4z"/>
	<path  d="M264.5,41.1c-1.1,1.7-2.4,2.9-4.1,3.8s-3.6,1.3-5.9,1.3c-3.8,0-6.8-1.4-8.9-4.2s-3.2-6.6-3.2-11.3v-0.6
		c0-5.1,1.1-9.1,3.2-12.1s5.1-4.6,9-4.6c2.2,0,4.1,0.5,5.7,1.4s3,2.3,4,4V3l-4.8-0.4V0h4.8h3.5v42.7l4.8,0.4v2.6h-7.9L264.5,41.1z
		 M246,30.7c0,3.8,0.8,6.9,2.3,9.1s3.8,3.4,6.9,3.4c2.2,0,4.1-0.5,5.6-1.5s2.7-2.4,3.5-4.2v-15c-0.8-1.8-1.9-3.3-3.4-4.4
		s-3.4-1.7-5.7-1.7c-3.1,0-5.4,1.3-7,3.8s-2.3,5.8-2.3,9.9V30.7z"/>
	<path  d="M289.3,46.3c-4,0-7.3-1.5-9.9-4.4c-2.6-2.9-3.9-6.6-3.9-11.1v-1.6c0-4.5,1.3-8.3,3.9-11.3s5.8-4.5,9.4-4.5
		c3.9,0,6.9,1.2,9.2,3.7s3.3,5.7,3.3,9.8v3H279v0.8c0,3.6,1,6.5,2.9,9s4.4,3.6,7.5,3.6c2.2,0,4-0.3,5.6-0.9c1.5-0.6,2.9-1.5,4-2.6
		l1.5,2.4c-1.2,1.2-2.7,2.2-4.5,3S291.9,46.3,289.3,46.3z M288.9,16.4c-2.6,0-4.8,1-6.5,3c-1.8,2-2.8,4.5-3.1,7.5l0.1,0.1h18.6v-0.9
		c0-2.8-0.8-5.1-2.4-6.9C293.8,17.3,291.6,16.4,288.9,16.4z"/>
</g>
</svg>
