<svg xmlns="http://www.w3.org/2000/svg" xmlns:xlink="http://www.w3.org/1999/xlink" width="163px" height="35px" viewBox="0 0 163 35"><g stroke="none" stroke-width="1" fill="none" fill-rule="evenodd"><g transform="translate(-20.000000, -20.000000)" fill="rgb(99, 0, 167)" data-reactid="8"><g transform="translate(20.000000, 20.000000)" data-reactid="9"><path d="M10.2939848,17.9087333 C7.46127206,17.9087333 5.16495514,15.6252229 5.16495514,12.8083938 C5.16495514,9.99152629 7.46127206,7.70801588 10.2939848,7.70801588 C13.1266975,7.70801588 15.4230145,9.99152629 15.4230145,12.8083938 C15.4230145,15.6252229 13.1266975,17.9087333 10.2939848,17.9087333 M10.2939848,2.60767634 C4.62859787,2.60767634 0.0358869391,7.17469715 0.0358869391,12.8083938 C0.0358869391,18.442052 4.62859787,23.0090728 10.2939848,23.0090728 C15.9593717,23.0090728 20.5520827,18.442052 20.5520827,12.8083938 C20.5520827,7.17469715 15.9593717,2.60767634 10.2939848,2.60767634" data-reactid="10"></path><path d="M10.327578,32.4208488 C8.9112216,32.4208488 7.76306314,31.2790745 7.76306314,29.8706791 C7.76306314,28.4622453 8.9112216,27.3205093 10.327578,27.3205093 C11.7439343,27.3205093 12.8920928,28.4622453 12.8920928,29.8706791 C12.8920928,31.2790745 11.7439343,32.4208488 10.327578,32.4208488 M10.3276165,24.7701862 C7.49490378,24.7701862 5.19858686,27.0536966 5.19858686,29.8705257 C5.19858686,32.6873932 7.49490378,34.9708653 10.3276165,34.9708653 C13.1602907,34.9708653 15.4566462,32.6873932 15.4566462,29.8705257 C15.4566462,27.0536966 13.1602907,24.7701862 10.3276165,24.7701862" data-reactid="11"></path><path d="M23.1165898,2.5605126 C23.1165898,3.96894633 21.9684313,5.11068237 20.5520749,5.11068237 C19.1357186,5.11068237 17.9875601,3.96894633 17.9875601,2.5605126 C17.9875601,1.15207886 19.1357186,0.0103428258 20.5520749,0.0103428258 C21.9684313,0.0103428258 23.1165898,1.15207886 23.1165898,2.5605126" data-reactid="12"></path><g transform="translate(25.000000, 11.000000)" data-reactid="13"><path d="M11.3616571,5.7577149 C11.5906995,5.7577149 11.7154567,5.8772222 11.7154567,6.09613748 L11.7154567,7.10378421 L11.7154567,11.1624265 C11.7154567,11.3813418 11.5906995,11.5007653 11.3616571,11.5007653 L10.5712949,11.5007653 C10.3426025,11.5007653 10.2177578,11.3813418 10.2177578,11.1624265 L10.2177578,9.87925135 C9.34410748,11.1107545 7.81027631,11.7 6.11118121,11.7 C2.6786959,11.7 0.161592506,9.13515716 0.161592506,5.92504187 C0.161592506,2.71492659 2.69531853,0.15 6.19420686,0.15 C8.66581675,0.15 10.7999873,1.55586484 11.5822132,3.54720661 C11.6697007,3.78236885 11.5449435,3.93370011 11.2953416,3.93370011 L10.367449,3.93370011 C10.1717394,3.93370011 10.0387584,3.84995287 9.94724644,3.68262589 C9.31471168,2.44006816 7.86276882,1.58375267 6.19420686,1.58375267 C3.53143675,1.58375267 1.70084791,3.47962259 1.70084791,5.92504187 C1.70084791,8.41015734 3.55654567,10.306111 6.19420686,10.306111 C8.30020641,10.306111 10.1581788,9.23456513 10.2048097,7.10378421 L6.78527254,7.10378421 C6.55649268,7.10378421 6.43173548,6.98436066 6.43173548,6.76536164 L6.43173548,6.09613748 C6.43173548,5.8772222 6.55649268,5.7577149 6.78527254,5.7577149 L11.3619196,5.7577149 L11.3616571,5.7577149 Z" data-reactid="14"></path><path d="M17.6380988,3.30300205 C17.8852294,3.27802653 18.0175644,3.41056215 18.0175644,3.63812661 L18.0175644,4.42455109 C18.0175644,4.63967129 17.9205868,4.77194585 17.7569776,4.77194585 C16.5169631,4.82589995 15.3518395,5.48788191 15.3518395,7.271761 L15.3518395,11.3480801 C15.3518395,11.5758186 15.2194117,11.7 14.9768284,11.7 L14.1911704,11.7 C13.9485871,11.7 13.8161593,11.5758186 13.8161593,11.3480801 L13.8161593,3.77457826 C13.8161593,3.54710083 13.9485871,3.42291938 14.1911704,3.42291938 L14.9768284,3.42291938 C15.2194117,3.42291938 15.3518395,3.54710083 15.3518395,3.77457826 L15.3518395,4.67369718 C15.8930582,3.76195997 16.710176,3.38106145 17.6380988,3.30274098 L17.6380988,3.30300205 Z" data-reactid="15"></path><path d="M24.9476052,6.91197981 C24.7267599,5.34339328 23.5776809,4.5998518 22.329436,4.5998518 C20.781679,4.5998518 19.7371971,5.52717587 19.5098692,6.91197981 L24.9476052,6.91197981 Z M26.4203747,7.52388753 C26.4203747,7.62381143 26.4164326,7.71986622 26.4122277,7.81600513 C26.3912908,8.03587135 26.2496379,8.13579525 26.03729,8.13579525 L24.9416483,8.13579525 L19.5146873,8.13579525 C19.7637406,9.6106821 20.8930215,10.4479233 22.3712223,10.4479233 C23.3252111,10.4479233 24.0792915,10.0478071 24.4666688,9.49587055 C24.5834426,9.35582569 24.7041585,9.27600433 24.8958323,9.27600433 L25.6957287,9.27188289 C25.9580975,9.27188289 26.0997504,9.41579685 26.0039135,9.62405575 C25.416365,10.8839548 24.0502075,11.7 22.3502854,11.7 C19.7465705,11.7 18.0175644,9.90801458 18.0175644,7.5 C18.0175644,5.13976048 19.7380731,3.3 22.3336409,3.3 C24.854046,3.3 26.4203747,5.27576801 26.4203747,7.52388753 L26.4203747,7.52388753 Z" data-reactid="16"></path><path d="M34.4007668,6.91197981 C34.1799215,5.34339328 33.0308424,4.5998518 31.7825976,4.5998518 C30.2348406,4.5998518 29.1903587,5.52717587 28.9630308,6.91197981 L34.4007668,6.91197981 Z M35.8735363,7.52388753 C35.8735363,7.62381143 35.8695942,7.71986622 35.8653893,7.81600513 C35.8444523,8.03587135 35.7027995,8.13579525 35.4904515,8.13579525 L34.3948099,8.13579525 L28.9678489,8.13579525 C29.2169022,9.6106821 30.3461831,10.4479233 31.8243839,10.4479233 C32.7783727,10.4479233 33.5324531,10.0478071 33.9198303,9.49587055 C34.0366042,9.35582569 34.1573201,9.27600433 34.3489939,9.27600433 L35.1488903,9.27188289 C35.4112591,9.27188289 35.552912,9.41579685 35.4570751,9.62405575 C34.8695266,10.8839548 33.5033691,11.7 31.803447,11.7 C29.1997321,11.7 27.470726,9.90801458 27.470726,7.5 C27.470726,5.13976048 29.1912347,3.3 31.7868025,3.3 C34.3072076,3.3 35.8735363,5.27576801 35.8735363,7.52388753 L35.8735363,7.52388753 Z" data-reactid="17"></path><path d="M40.6034368,3.3 C42.0594535,3.3 43.2259953,4.4555396 43.2259953,6.38138149 L43.2259953,11.351813 C43.2259953,11.5771308 43.1085428,11.7 42.8928152,11.7 L42.1963306,11.7 C41.9810969,11.7 41.8637267,11.5771308 41.8637267,11.351813 L41.8637267,6.43445825 C41.8637267,5.25867021 41.1748966,4.65216486 40.2392269,4.65216486 C39.2645435,4.65216486 38.2861562,5.27090544 38.2861562,7.03682774 L38.2861562,11.351813 C38.2861562,11.5771308 38.1687037,11.7 37.9533054,11.7 L37.2567384,11.7 C37.0412578,11.7 36.9238876,11.5771308 36.9238876,11.351813 L36.9238876,3.8531701 C36.9238876,3.62759388 37.0412578,3.50463847 37.2567384,3.50463847 L37.9533054,3.50463847 C38.1687037,3.50463847 38.2861562,3.62759388 38.2861562,3.8531701 L38.2861562,4.51361384 C38.8464222,3.6225964 39.6560794,3.3 40.6031899,3.3 L40.6034368,3.3 Z" data-reactid="18"></path><path d="M49.0063499,3.24383209 C50.4620626,3.24383209 51.6288056,4.40709839 51.6288056,6.34581772 L51.6288056,11.3494848 C51.6288056,11.5763092 51.5113577,11.7 51.2956386,11.7 L50.5991813,11.7 C50.383956,11.7 50.2665904,11.5763092 50.2665904,11.3494848 L50.2665904,6.39924938 C50.2665904,5.21559926 49.5774581,4.60503841 48.6419073,4.60503841 C47.667509,4.60503841 46.6889132,5.22791629 46.6889132,7.00564672 L46.6889132,11.3494848 C46.6889132,11.5763092 46.5714652,11.7 46.3563223,11.7 L45.6597826,11.7 C45.4440635,11.7 45.3266979,11.5763092 45.3266979,11.3494848 L45.3266979,0.500515181 C45.3266979,0.273777571 45.4440635,0.15 45.6597826,0.15 L46.3563223,0.15 C46.5714652,0.15 46.6889132,0.273777571 46.6889132,0.500515181 L46.6889132,4.46556095 C47.2494041,3.56858558 48.0590296,3.24383209 49.0058561,3.24383209 L49.0063499,3.24383209 Z" data-reactid="19"></path><path d="M60.7455266,7.5 C60.7455266,5.88389074 59.5173211,4.65191653 57.9308714,4.65191653 C56.3445056,4.65191653 55.116803,5.88389074 55.116803,7.5 C55.116803,9.11585693 56.3445056,10.347747 57.9308714,10.347747 C59.5173211,10.347747 60.7455266,9.11585693 60.7455266,7.5 M53.7295082,7.5 C53.7295082,5.12781672 55.599435,3.3 57.9308714,3.3 C60.2628946,3.3 62.1323185,5.12781672 62.1323185,7.5 C62.1323185,9.87184684 60.2628946,11.7 57.9308714,11.7 C55.599435,11.7 53.7295082,9.87184684 53.7295082,7.5" data-reactid="20"></path><path d="M69.1521301,3.3 C69.3673096,3.3 69.4847775,3.42295163 69.4847775,3.64843474 L69.4847775,11.1469331 C69.4847775,11.3721577 69.3673096,11.4951093 69.1521301,11.4951093 L68.4554722,11.4951093 C68.2402928,11.4951093 68.1228248,11.3721577 68.1228248,11.1469331 L68.1228248,10.486165 C67.5622387,11.377155 66.7523934,11.7 65.8054885,11.7 C64.3490347,11.7 63.1826698,10.5445821 63.1826698,8.61854101 L63.1826698,3.64843474 C63.1826698,3.42295163 63.3000554,3.3 63.5152348,3.3 L64.2118928,3.3 C64.4271546,3.3 64.5445401,3.42295163 64.5445401,3.64843474 L64.5445401,8.56537972 C64.5445401,9.74147622 65.2337894,10.3477044 66.1694991,10.3477044 C67.1440629,10.3477044 68.1228248,9.72889673 68.1228248,7.96302876 L68.1228248,3.64843474 C68.1228248,3.42295163 68.2402928,3.3 68.4554722,3.3 L69.1526241,3.3 L69.1521301,3.3 Z" data-reactid="21"></path><path d="M77.8875878,9.32781672 C77.8875878,10.7718348 76.5623339,11.7 74.7270988,11.7 C73.0246069,11.7 71.7611952,10.8917771 71.5875142,9.45978692 C71.5666969,9.22385549 71.7072792,9.10382905 71.9349633,9.10382905 L72.6641797,9.10382905 C72.8756628,9.10382905 72.9706038,9.21973405 73.0369754,9.41579685 C73.182087,10.1438619 73.8944056,10.4118396 74.7270988,10.4118396 C75.6840864,10.4118396 76.4459658,10.0797693 76.4459658,9.32781672 C76.4459658,7.5159811 71.7117214,8.69176914 71.7117214,5.67184684 C71.7117214,4.23573517 73.0369754,3.3 74.7270988,3.3 C76.2806466,3.3 77.5271606,4.10788641 77.7009287,5.53996075 C77.721746,5.77580807 77.5811637,5.8958345 77.3534796,5.8958345 L76.6241761,5.8958345 C76.4127801,5.8958345 76.317752,5.77992951 76.2513804,5.57982937 C76.1102755,4.85580166 75.4186872,4.58782393 74.7270988,4.58782393 C73.9152229,4.58782393 73.1528208,4.91989426 73.1528208,5.67184684 C73.1528208,7.49184123 77.8875878,6.30385709 77.8875878,9.32781672" data-reactid="22"></path><path d="M85.8683042,6.91197981 C85.6472052,5.34339328 84.4981741,4.5998518 83.2496309,4.5998518 C81.7019385,4.5998518 80.6581133,5.52717587 80.4302693,6.91197981 L85.8683042,6.91197981 Z M87.3407494,7.52388753 C87.3407494,7.62381143 87.3368075,7.71986622 87.3322523,7.81600513 C87.3114039,8.03587135 87.1700197,8.13579525 86.9574178,8.13579525 L85.8620847,8.13579525 L80.43535,8.13579525 C80.6841301,9.6106821 81.8133639,10.4479233 83.2915031,10.4479233 C84.2454521,10.4479233 84.9997638,10.0478071 85.3871249,9.49587055 C85.5035435,9.35582569 85.6246048,9.27600433 85.8162706,9.27600433 L86.6158708,9.27188289 C86.8782287,9.27188289 87.0201385,9.41579685 86.9240428,9.62405575 C86.3365188,10.8839548 84.9703307,11.7 83.270567,11.7 C80.6671359,11.7 78.9379391,9.90801458 78.9379391,7.5 C78.9379391,5.13976048 80.6586389,3.3 83.2541861,3.3 C85.7743984,3.3 87.3407494,5.27576801 87.3407494,7.52388753 L87.3407494,7.52388753 Z" data-reactid="23"></path><path d="M103.97734,6.13324916 C104.087147,6.13324916 104.14637,6.18922559 104.14637,6.29326599 L104.14637,6.6776936 L104.14637,11.3693603 C104.14637,11.4734007 104.087147,11.5293771 103.97734,11.5293771 L103.694496,11.5293771 C103.584689,11.5293771 103.525466,11.4734007 103.525466,11.3693603 L103.525466,9.28670034 C102.68388,10.9053872 100.776998,11.7 98.8155231,11.7 C95.1110302,11.7 92.5925059,9.11683502 92.5925059,5.92516835 C92.5925059,2.73341751 95.1564492,0.15 98.7028663,0.15 C101.133403,0.15 103.248945,1.49343434 104.064705,3.44579125 C104.108432,3.55765993 104.050901,3.62996633 103.929606,3.62996633 L103.612297,3.62996633 C103.517451,3.62996633 103.451906,3.59031987 103.411118,3.50824916 C102.659123,1.83905724 100.814401,0.705050505 98.7028663,0.705050505 C95.4950429,0.705050505 93.2139437,3.03771044 93.2139437,5.92516835 C93.2139437,8.81254209 95.4501583,11.145202 98.8155231,11.145202 C101.125388,11.145202 103.310484,9.95496633 103.524932,7.63316498 L103.524932,6.6776936 L99.0639023,6.6776936 C98.9540954,6.6776936 98.8948727,6.62171717 98.8948727,6.51767677 L98.8948727,6.29326599 C98.8948727,6.18922559 98.9540954,6.13324916 99.0639023,6.13324916 L103.976806,6.13324916 L103.97734,6.13324916 Z" data-reactid="24"></path><path d="M109.398126,3.4607848 L109.398126,3.6820309 C109.398126,3.78136055 109.363248,3.84781286 109.293883,3.84781286 C107.966855,3.8976085 106.773777,4.95936303 106.773777,7.08810457 L106.773777,11.534218 C106.773777,11.6392162 106.719147,11.7 106.625014,11.7 L106.396384,11.7 C106.301702,11.7 106.247073,11.6392162 106.247073,11.534218 L106.247073,3.57136425 C106.247073,3.46645331 106.301702,3.40532066 106.396384,3.40532066 L106.625014,3.40532066 C106.719147,3.40532066 106.773777,3.46645331 106.773777,3.57136425 L106.773777,5.21156789 C107.248908,3.88801564 108.258267,3.34401361 109.248894,3.30032252 C109.343497,3.29500284 109.398126,3.35578665 109.398126,3.4607848" data-reactid="25"></path><path d="M118.284078,7.49987294 C118.284078,5.44254339 116.688716,3.83669467 114.649883,3.83669467 C112.610459,3.83669467 111.015688,5.44254339 111.015688,7.49987294 C111.015688,9.55686367 112.610459,11.1627971 114.649883,11.1627971 C116.688716,11.1627971 118.284078,9.55686367 118.284078,7.49987294 M110.448478,7.49987294 C110.448478,5.12599857 112.316219,3.3 114.649883,3.3 C116.983462,3.3 118.851288,5.12599857 118.851288,7.49987294 C118.851288,9.87374732 116.983462,11.7 114.649883,11.7 C112.316219,11.7 110.448478,9.87374732 110.448478,7.49987294" data-reactid="26"></path><path d="M127.254098,3.46438373 L127.254098,11.3599911 C127.254098,11.4641037 127.192794,11.5243749 127.086633,11.5243749 L126.829982,11.5243749 C126.724349,11.5243749 126.663045,11.4641037 126.663045,11.3599911 L126.663045,9.88278585 C126.064076,11.2026117 124.885399,11.7 123.74076,11.7 C122.184583,11.7 120.951991,10.6801464 120.951991,8.78839316 L120.951991,3.46438373 C120.951991,3.36027115 121.013295,3.3 121.119456,3.3 L121.376107,3.3 C121.481652,3.3 121.542956,3.36027115 121.542956,3.46438373 L121.542956,8.78839316 C121.542956,10.2963826 122.474657,11.1518525 123.807782,11.1518525 C125.279962,11.1518525 126.663045,10.1099484 126.663045,7.93888986 L126.663045,3.46464315 C126.663045,3.36053057 126.724349,3.3 126.830598,3.3 L127.086633,3.3 C127.192794,3.3 127.254098,3.36027115 127.254098,3.46438373" data-reactid="27"></path><path d="M137.189889,7.53662041 C137.189889,5.46192461 135.595102,3.84191218 133.556164,3.84191218 C131.516804,3.84191218 129.922017,5.46192461 129.922017,7.53662041 C129.922017,9.61165795 131.516804,11.2313286 133.556164,11.2313286 C135.595102,11.2313286 137.189889,9.61165795 137.189889,7.53662041 L137.189889,7.53662041 Z M133.582921,3.30059804 C135.889851,3.30059804 137.757611,5.14231347 137.757611,7.53662041 C137.757611,9.93092735 135.889851,11.7728991 133.582921,11.7728991 C131.912336,11.7728991 130.557264,10.8287604 129.922017,9.41387666 L129.922017,14.6873324 C129.922017,14.7901957 129.863185,14.85 129.761221,14.85 L129.515006,14.85 C129.413633,14.85 129.354801,14.7901957 129.354801,14.6873324 L129.354801,3.63618547 C129.354801,3.53332211 129.413633,3.47351784 129.515006,3.47351784 L129.761221,3.47351784 C129.863185,3.47351784 129.922017,3.53332211 129.922017,3.63618547 L129.922017,5.65902242 C130.557264,4.2442241 131.912336,3.3 133.582921,3.3 L133.582921,3.30059804 Z" data-reactid="28"></path></g></g></g></g></svg>
