<svg xmlns="http://www.w3.org/2000/svg" xmlns:xlink="http://www.w3.org/1999/xlink" width="500" height="120.911" viewBox="0 189.542 500 120.911"><linearGradient id="a" gradientUnits="userSpaceOnUse" x1="2772.587" y1="442.565" x2="2782.519" y2="432.123" gradientTransform="rotate(180 4559.507 827.352) scale(3.268)"><stop offset="0" stop-color="#ed1c24"/><stop offset=".348" stop-color="#ea1b23"/><stop offset=".557" stop-color="#e2171e"/><stop offset=".73" stop-color="#d41116"/><stop offset=".882" stop-color="#c0090c"/><stop offset="1" stop-color="#a00"/></linearGradient><path fill="url(#a)" d="M73.399 206.918a73.754 73.754 0 0 1 3.415 1.794 72.14 72.14 0 0 1 3.837 2.324 108.55 108.55 0 0 0-18.915 10.114c-.451.301-.869.621-1.311.925-11.249 7.768-20.582 17.291-27.889 27.954-.304-.438-.625-.859-.925-1.307a109.393 109.393 0 0 1-10.118-18.918 74.374 74.374 0 0 0-2.317 3.837 74.281 74.281 0 0 0-1.797 3.415 90.71 90.71 0 0 1 7.023-15.441 90.264 90.264 0 0 1 9.033-12.958 91.471 91.471 0 0 1 6.118-6.634 93.139 93.139 0 0 1 4.265-.098 89.985 89.985 0 0 1 29.581 4.993"/><defs><path id="b" d="M73.399 206.918a73.754 73.754 0 0 1 3.415 1.794 72.14 72.14 0 0 1 3.837 2.324 108.55 108.55 0 0 0-18.915 10.114c-.451.301-.869.621-1.311.925-11.249 7.768-20.582 17.291-27.889 27.954-.304-.438-.625-.859-.925-1.307a109.393 109.393 0 0 1-10.118-18.918 74.374 74.374 0 0 0-2.317 3.837 74.281 74.281 0 0 0-1.797 3.415 90.71 90.71 0 0 1 7.023-15.441 90.264 90.264 0 0 1 9.033-12.958 91.471 91.471 0 0 1 6.118-6.634 93.139 93.139 0 0 1 4.265-.098 89.985 89.985 0 0 1 29.581 4.993"/></defs><clipPath id="c"><use xlink:href="#b" overflow="visible"/></clipPath><linearGradient id="d" gradientUnits="userSpaceOnUse" x1="2771.391" y1="441.427" x2="2781.322" y2="430.986" gradientTransform="rotate(180 4559.507 827.352) scale(3.268)"><stop offset="0" stop-color="#ed1c24"/><stop offset=".348" stop-color="#ea1b23"/><stop offset=".557" stop-color="#e2171e"/><stop offset=".73" stop-color="#d41116"/><stop offset=".882" stop-color="#c0090c"/><stop offset="1" stop-color="#a00"/></linearGradient><path clip-path="url(#c)" fill="url(#d)" d="M104.056 220.428l-62.344-49.284-47.738 60.389 62.34 49.28z"/><linearGradient id="e" gradientUnits="userSpaceOnUse" x1="2784.313" y1="428.882" x2="2773.745" y2="419.46" gradientTransform="rotate(180 4559.507 827.352) scale(3.268)"><stop offset="0" stop-color="#9fd92b"/><stop offset=".429" stop-color="#9dd728"/><stop offset=".687" stop-color="#97d220"/><stop offset=".899" stop-color="#8dca12"/><stop offset="1" stop-color="#86c408"/></linearGradient><path fill="url(#e)" d="M31.611 248.726c.3.451.621.869.925 1.311 7.771 11.245 17.291 20.581 27.958 27.889-.441.301-.863.624-1.311.925a109.225 109.225 0 0 1-18.918 10.114 72.892 72.892 0 0 0 3.837 2.32 79.004 79.004 0 0 0 3.415 1.794 91.01 91.01 0 0 1-15.441-7.022 90.1 90.1 0 0 1-12.958-9.032 90.186 90.186 0 0 1-6.634-6.118 90.01 90.01 0 0 1 4.892-33.847 74.802 74.802 0 0 1 1.797-3.415 71.517 71.517 0 0 1 2.32-3.836 108.93 108.93 0 0 0 10.118 18.917"/><defs><path id="f" d="M31.611 248.726c.3.451.621.869.925 1.311 7.771 11.245 17.291 20.581 27.958 27.889-.441.301-.863.624-1.311.925a109.225 109.225 0 0 1-18.918 10.114 72.892 72.892 0 0 0 3.837 2.32 79.004 79.004 0 0 0 3.415 1.794 91.01 91.01 0 0 1-15.441-7.022 90.1 90.1 0 0 1-12.958-9.032 90.186 90.186 0 0 1-6.634-6.118 90.01 90.01 0 0 1 4.892-33.847 74.802 74.802 0 0 1 1.797-3.415 71.517 71.517 0 0 1 2.32-3.836 108.93 108.93 0 0 0 10.118 18.917"/></defs><clipPath id="g"><use xlink:href="#f" overflow="visible"/></clipPath><linearGradient id="h" gradientUnits="userSpaceOnUse" x1="2783.372" y1="429.938" x2="2772.803" y2="420.516" gradientTransform="rotate(180 4559.507 827.352) scale(3.268)"><stop offset="0" stop-color="#8cc63f"/><stop offset=".38" stop-color="#8ac33d"/><stop offset=".609" stop-color="#82bb37"/><stop offset=".797" stop-color="#75ad2c"/><stop offset=".963" stop-color="#63991d"/><stop offset="1" stop-color="#5e9319"/></linearGradient><path clip-path="url(#g)" fill="url(#h)" d="M30.621 206.196l-49.448 62.549 60.654 47.951 49.447-62.552z"/><g><linearGradient id="i" gradientUnits="userSpaceOnUse" x1="2772.654" y1="415.677" x2="2760.621" y2="427.901" gradientTransform="rotate(180 4559.507 827.352) scale(3.268)"><stop offset="0" stop-color="#ffc814"/><stop offset="1" stop-color="#de8c00"/><stop offset="1" stop-color="#cc9600"/></linearGradient><path fill="url(#i)" d="M89.307 251.274a109.324 109.324 0 0 1 10.118 18.919 77.986 77.986 0 0 0 2.32-3.837 74.267 74.267 0 0 0 1.794-3.415 90.928 90.928 0 0 1-7.02 15.441 90.215 90.215 0 0 1-9.036 12.957 92.56 92.56 0 0 1-6.115 6.634 90.092 90.092 0 0 1-33.85-4.896 77.288 77.288 0 0 1-3.415-1.794 73.564 73.564 0 0 1-3.84-2.323 108.648 108.648 0 0 0 18.918-10.115c.451-.3.869-.62 1.311-.924 11.248-7.771 20.582-17.291 27.889-27.955.306.443.625.864.926 1.308"/><g><defs><path id="j" d="M89.307 251.274a109.324 109.324 0 0 1 10.118 18.919 77.986 77.986 0 0 0 2.32-3.837 74.267 74.267 0 0 0 1.794-3.415 90.928 90.928 0 0 1-7.02 15.441 90.215 90.215 0 0 1-9.036 12.957 92.56 92.56 0 0 1-6.115 6.634 90.092 90.092 0 0 1-33.85-4.896 77.288 77.288 0 0 1-3.415-1.794 73.564 73.564 0 0 1-3.84-2.323 108.648 108.648 0 0 0 18.918-10.115c.451-.3.869-.62 1.311-.924 11.248-7.771 20.582-17.291 27.889-27.955.306.443.625.864.926 1.308"/></defs><clipPath id="k"><use xlink:href="#j" overflow="visible"/></clipPath><linearGradient id="l" gradientUnits="userSpaceOnUse" x1="2771.488" y1="418.448" x2="2762.83" y2="429.653" gradientTransform="rotate(180 4559.507 827.352) scale(3.268)"><stop offset="0" stop-color="#ffc814"/><stop offset=".348" stop-color="#fec513"/><stop offset=".557" stop-color="#fabd11"/><stop offset=".73" stop-color="#f4af0c"/><stop offset=".882" stop-color="#ec9b06"/><stop offset="1" stop-color="#e38500"/></linearGradient><path clip-path="url(#k)" fill="url(#l)" d="M16.654 279.836l62.552 49.451 47.951-60.653-62.556-49.447z"/></g></g><g><linearGradient id="m" gradientUnits="userSpaceOnUse" x1="2759.037" y1="430.381" x2="2768.969" y2="440.567" gradientTransform="rotate(180 4559.507 827.352) scale(3.268)"><stop offset="0" stop-color="#479fd6"/><stop offset=".393" stop-color="#459dd3"/><stop offset=".629" stop-color="#3e95cb"/><stop offset=".823" stop-color="#3388bd"/><stop offset=".995" stop-color="#2476a9"/><stop offset="1" stop-color="#2375a8"/></linearGradient><path fill="url(#m)" d="M88.843 213.941a89.948 89.948 0 0 1 12.958 9.036 91.023 91.023 0 0 1 6.634 6.114 90.105 90.105 0 0 1-4.892 33.85 79.605 79.605 0 0 1-1.797 3.415 72 72 0 0 1-2.324 3.837 108.481 108.481 0 0 0-10.114-18.916c-.297-.447-.621-.869-.925-1.31-7.771-11.249-17.288-20.582-27.954-27.889.441-.304.859-.625 1.311-.925a109.026 109.026 0 0 1 18.918-10.115 75.696 75.696 0 0 0-3.836-2.32 77.288 77.288 0 0 0-3.415-1.794 90.737 90.737 0 0 1 15.436 7.017"/><g><defs><path id="n" d="M88.843 213.941a89.948 89.948 0 0 1 12.958 9.036 91.023 91.023 0 0 1 6.634 6.114 90.105 90.105 0 0 1-4.892 33.85 79.605 79.605 0 0 1-1.797 3.415 72 72 0 0 1-2.324 3.837 108.481 108.481 0 0 0-10.114-18.916c-.297-.447-.621-.869-.925-1.31-7.771-11.249-17.288-20.582-27.954-27.889.441-.304.859-.625 1.311-.925a109.026 109.026 0 0 1 18.918-10.115 75.696 75.696 0 0 0-3.836-2.32 77.288 77.288 0 0 0-3.415-1.794 90.737 90.737 0 0 1 15.436 7.017"/></defs><clipPath id="o"><use xlink:href="#n" overflow="visible"/></clipPath><linearGradient id="p" gradientUnits="userSpaceOnUse" x1="2760.359" y1="429.094" x2="2770.291" y2="439.28" gradientTransform="rotate(180 4559.507 827.352) scale(3.268)"><stop offset="0" stop-color="#479fd6"/><stop offset=".393" stop-color="#459dd3"/><stop offset=".629" stop-color="#3e95cb"/><stop offset=".823" stop-color="#3388bd"/><stop offset=".995" stop-color="#2476a9"/><stop offset="1" stop-color="#2375a8"/></linearGradient><path clip-path="url(#o)" fill="url(#p)" d="M90.297 293.807l49.452-62.556-60.654-47.944-49.454 62.549z"/></g></g><path fill="#FFC814" d="M120.833 253.166c-.873 16.674-8.422 31.409-19.922 41.762a72.413 72.413 0 0 1-36.46.689c14.02-6.078 26.248-16.598 34.317-30.941 9.817-17.46 11.631-37.251 6.621-55.13 10.35 11.5 16.32 26.948 15.444 43.62"/><path fill="#8CC63F" d="M45.781 288.304c17.464 9.817 37.255 11.634 55.134 6.621-11.497 10.353-26.948 16.317-43.624 15.444-16.667-.875-31.405-8.422-41.762-19.922a72.439 72.439 0 0 1-.689-36.464c6.078 14.023 16.598 26.255 30.941 34.321"/><path fill="#ED1C24" d="M56.467 204.382c-14.02 6.079-26.249 16.598-34.313 30.938-9.82 17.461-11.634 37.252-6.621 55.131-10.356-11.5-16.32-26.947-15.448-43.618.876-16.673 8.421-31.409 19.921-41.762a72.526 72.526 0 0 1 19.572-2.689c5.631 0 11.301.654 16.889 2"/><path fill="#479FD6" d="M63.627 189.627c16.67.876 31.405 8.421 41.761 19.918a72.439 72.439 0 0 1 .69 36.464c-6.075-14.02-16.598-26.249-30.941-34.313-17.461-9.82-37.251-11.634-55.131-6.621 10.755-9.687 24.967-15.533 40.402-15.533 1.069 0 2.141.027 3.219.085"/><g fill="#373f43"><path d="M137.373 273.559l5.32-9.355c2.232 2.143 5.15 4.121 9.098 4.121 5.408 0 8.925-3.605 8.925-9.184V220.86h12.189v38.451c0 13.563-8.412 19.826-20.167 19.826-5.751 0-11.244-1.542-15.365-5.578M177.994 257.34c0-11.758 8.242-21.716 21.889-21.716 13.732 0 21.971 9.958 21.971 21.716 0 11.844-8.242 21.801-21.971 21.801-13.648-.004-21.889-9.957-21.889-21.801m32.529 0c0-6.438-3.863-12.016-10.644-12.016-6.781 0-10.559 5.579-10.559 12.016 0 6.523 3.778 12.102 10.559 12.102 6.781-.001 10.644-5.583 10.644-12.102M255.379 278.111v-5.235c-2.833 3.177-7.81 6.265-14.591 6.265-9.098 0-13.389-4.977-13.389-13.046v-29.438h10.898v25.147c0 5.752 3.003 7.641 7.641 7.641 4.206 0 7.552-2.317 9.441-4.722v-28.066h10.902v41.458h-10.902v-.004zM311.304 278.111l-8.755-28.242-8.755 28.242h-11.673l-12.617-41.457h11.33l7.725 27.895 9.097-27.895h9.7l9.098 27.895 7.726-27.895h11.327l-12.618 41.457zM383.386 278.111l-10.043-39.31-9.957 39.31h-12.961l-16.393-57.252h13.648l10.039 41.37 10.905-41.37h9.526l10.814 41.37 9.958-41.37h13.731l-16.31 57.252zM409.565 257.34c0-12.016 8.843-21.716 21.461-21.716 12.359 0 20.771 9.271 20.771 22.827v2.405h-30.814c.687 5.235 4.893 9.614 11.929 9.614 3.52 0 8.411-1.546 11.071-4.121l4.808 7.039c-4.121 3.777-10.644 5.752-17.082 5.752-12.614.001-22.144-8.499-22.144-21.8m21.461-13.049c-6.784 0-9.703 5.065-10.216 9.183h20.428c-.255-3.948-3.003-9.183-10.212-9.183M457.268 278.111v-57.252h10.902v21.114c3.262-4.206 7.896-6.35 12.787-6.35 10.556 0 18.37 8.239 18.37 21.801 0 13.817-7.899 21.716-18.37 21.716-4.979 0-9.529-2.232-12.787-6.354v5.324h-10.902zm20.258-8.673c6.35 0 10.556-4.807 10.556-12.016s-4.206-12.102-10.556-12.102c-3.52 0-7.553 2.059-9.356 4.807v14.676c1.801 2.661 5.833 4.635 9.356 4.635"/></g></svg>
