<svg id="Juridisch_Logo" xmlns="http://www.w3.org/2000/svg" viewBox="0 0 207.9 42"><style>.st0{fill:#004880;} .st1{fill:#FF9900;}</style><g id="Logo"><g id="home"><g id="header"><g id="logo"><path id="Fill-5" class="st0" d="M26.6 8.9l3.9-4.3c-5.5-1-9.4-3-11-3.9-.1 0-.2-.1-.3-.1L18.1 0v5.7c1.8.9 4.7 2.2 8.5 3.2"/><path id="Fill-9" class="st0" d="M18.1 36.5c-1.3-.6-3.6-2.1-6-4.5C7.4 27.3 5 21.1 5 13.6V9.8c6.2-.8 10.7-2.9 13.1-4.1V0L17 .6c-.1 0-.2.1-.3.1-1.9 1-7.1 3.7-14.4 4.3L0 5.2v8.4c0 4.8.9 9.3 2.7 13.3 1.4 3.2 3.4 6.1 5.9 8.7 4.2 4.3 8.5 6 8.7 6.1l.9.4-.1-5.6"/><path id="Fill-7" class="st1" d="M33.9 5c-.4 0-.8-.1-1.2-.1L18 21.1l-5.9-5.7L8.6 19l9.7 9.3 13-14.2c-.1 7.2-2.4 13.2-6.9 17.8-2.4 2.5-4.9 4-6.2 4.6V42l.9-.4c.2-.1 4.5-1.8 8.7-6.1 2.5-2.5 4.5-5.4 5.9-8.7 1.8-4 2.7-8.5 2.7-13.3V5.2L33.9 5"/></g></g></g></g><path class="st0" d="M52.4 31.2c.3.5.5 1.4.6 2.3h.5c1.4 0 2-.5 2-2.8v-18c-.7-.3-1.4-.6-1.7-1.1l.3-2.6h7.2l.3 2.6c-.3.4-1 .8-1.7 1.1v17.7c0 4.9-1.8 6.4-5.9 6.4-2.2 0-4.1-.8-5.2-1.6-.1-1.2.3-3.1.8-4.1h2.8zm27.4-1.5c-1.3.7-3.1 1-4.7 1-.4-.3-.8-1-.8-1.5-1.1.8-3.1 1.5-5.1 1.5-3.8 0-5.1-1.6-5.1-5.1v-7.1c-.7-.2-1.3-.6-1.7-1.1l.3-2.4c1.6-.4 4-.5 5.7-.3v9.9c0 2.4.7 2.8 2.2 2.8 1 0 2.4-.4 3.1-1v-7.9c-.7-.2-1.3-.6-1.7-1.1l.3-2.4c1.6-.4 4-.5 5.7-.3v12.1c.6.1 1.2.3 1.7.5v2.4zm12-10.9c-.4-.1-.9-.1-1.4-.1-1.3 0-2.6.3-3.2.9v7.1c1.4.2 2.8.7 3.4 1.3l-.3 2.4h-8.8l-.4-2.4c.3-.4 1-.8 1.7-1.1v-8.6c-.7-.2-1.3-.6-1.7-1.1l.3-2.4c1.6-.4 3.6-.5 5.3-.3v1.9c.9-1.1 2.5-1.9 4.1-1.9.4 0 .8 0 1.1.2l-.1 4.1zm1.7-3.8c1.6-.4 4-.5 5.7-.3V27c.7.3 1.4.7 1.7 1.1l-.3 2.4h-7.1l-.3-2.5c.3-.4 1-.8 1.7-1.1v-8.6c-.7-.2-1.3-.6-1.7-1.1l.3-2.2zM97 8.1c1.6 0 2.6.6 2.6 2.4 0 1.8-1 2.3-2.6 2.3s-2.6-.6-2.6-2.3c0-1.8 1-2.4 2.6-2.4zm13.2.4c1.6-.4 4.4-.5 6.1-.3v18.6c.6.1 1.2.3 1.7.5v2.4c-1.3.7-3.2 1-4.7 1-.4-.2-.9-.8-.9-1.3-.9.7-2.4 1.3-3.9 1.3-4.4 0-6.3-2.2-6.3-7.7 0-6.4 3.6-8.2 7.2-8.2 1 0 1.8.1 2.6.3V12c-.9-.2-1.7-.6-2.1-1.1l.3-2.4zm1.8 18v-8.3c-.9-.2-1.8-.3-2.5-.3-2.2 0-2.8 1.9-2.8 4.9 0 3.6.9 4.8 2.5 4.8 1.1-.1 2-.4 2.8-1.1zm7.7-11.5c1.6-.4 4-.5 5.7-.3V27c.7.3 1.4.7 1.7 1.1l-.3 2.4h-7.1l-.3-2.4c.3-.4 1-.8 1.7-1.1v-8.6c-.7-.2-1.3-.6-1.7-1.1l.3-2.3zm3.5-6.9c1.6 0 2.6.6 2.6 2.4 0 1.8-1 2.3-2.6 2.3s-2.6-.6-2.6-2.3c0-1.8 1-2.4 2.6-2.4zm13.6 11.1c-.2-.4-.4-.9-.5-1.5-.5-.1-1.2-.2-1.7-.2-1.2 0-2 .4-2 1.2 0 .6.4 1.2 2.1 1.7l2.4.6c2.4.6 3.8 1.9 3.8 4.4 0 2.8-1.9 5.3-6.6 5.3-2.1 0-4.4-.3-5.7-1-.1-1.2.2-2.8.7-3.7h2.6c.2.5.4 1 .5 1.5.5.2 1.1.2 1.8.2 1.4 0 2.7-.2 2.7-1.5 0-.6-.3-1-1.8-1.5l-2.4-.7c-2.2-.6-4-1.7-4-4.5s2.3-4.7 6.1-4.7c1.7 0 3.9.2 5.4.9.1 1.2-.2 2.6-.6 3.6h-2.8zm14.3.5c-.2-.4-.5-1.1-.5-1.9h-1c-2.1 0-2.8 1.9-2.8 4.9 0 3.5 1.2 4.4 3.1 4.4 1.3 0 3-.2 4.1-.4l.9 2.4c-1.3.8-3.7 1.5-5.9 1.5-4 0-6.7-2.2-6.7-7.7 0-6.3 3.7-8.2 7.3-8.2 2 0 3.8.4 5 1.1.1 1.2-.3 2.9-.8 3.9h-2.7zm5-11.2c1.6-.4 4-.5 5.7-.3v7.7c1-.6 2.9-1.2 4.2-1.2 4.3 0 5.4 2.3 5.4 6V27c.7.3 1.4.7 1.7 1.1l-.3 2.4h-7.1l-.3-2.4c.3-.4 1-.8 1.7-1.1v-6.1c0-2.4-.8-2.8-2.3-2.8-1.3 0-2.3.5-2.9 1V27c.7.3 1.4.7 1.7 1.1l-.3 2.4h-7.1l-.3-2.4c.3-.4 1-.8 1.7-1.1V11.9c-.7-.2-1.3-.6-1.7-1.1l.2-2.3zm21 17.6c1.6 0 2.6.6 2.6 2.4 0 1.8-1 2.3-2.6 2.3s-2.6-.6-2.6-2.3c.1-1.9 1.1-2.4 2.6-2.4zM182 15c1.6-.4 3.6-.5 5.3-.3v1.5c1.1-.9 3-1.5 4.5-1.5 4.1 0 5.5 1.7 5.5 6.3v6c.7.3 1.4.7 1.7 1.1l-.3 2.4h-7.1l-.3-2.4c.3-.4 1-.8 1.7-1.1v-6.1c0-2.4-.8-2.8-2.3-2.8-1.2 0-2.2.5-2.9 1V27c.7.3 1.4.7 1.7 1.1l-.3 2.4H182l-.3-2.4c.3-.4 1-.8 1.7-1.1v-8.6c-.7-.2-1.3-.6-1.7-1.1l.3-2.3zm18-6.5c1.6-.4 4-.5 5.7-.3V27c.7.3 1.4.7 1.7 1.1l-.3 2.4H200l-.3-2.4c.3-.4 1-.8 1.7-1.1V11.9c-.7-.2-1.3-.6-1.7-1.1l.3-2.3z" id="Juridisch.nl"/></svg>