<svg id="Layer_1" xmlns="http://www.w3.org/2000/svg" viewBox="0 0 1002.9 267.1"><style>.st0{fill:none;} .st1{fill:#B02A30;} .st2{fill:none;stroke:#FFFFFF;stroke-width:0;stroke-linecap:round;stroke-linejoin:round;}</style><path class="st0" d="M607.9 142.2H620c-2-4.4-4-8.7-6.1-13.3-2.1 4.7-4 8.9-6 13.3zm-160.6-25.6c-3.6-.1-7.2 0-10.8 0-.3 0-.6.1-.9.2v12.3h12.8c.7 0 1.4-.4 2-.8 2.4-1.5 3.6-4.4 3-7.1-.7-2.6-3.1-4.5-6.1-4.6zm285.8.6c-3.2-.4-6.5-.1-9.9-.1v32.4c3.6 0 7.1.1 10.5 0 1.2 0 2.3-.6 3.4-1 6.6-2.9 10.5-10.2 9.3-17.6-1.3-7.5-6.1-12.7-13.3-13.7z"/><path class="st1" d="M215.5 211.1c-1.4-9.7-2.8-19.3-4.2-29-1.4-9.9-2.9-19.7-4.3-29.6-.3-2.2-.7-4.3-1-6.5-.1 0-.3-.1-.4-.1-.4.8-.9 1.6-1.3 2.4-12.7 24.4-25.4 48.9-38.1 73.3-1.9 3.7-3.7 7.4-5.8 11-2.5 4.4-7.5 4.4-10.2.2-.9-1.3-1.6-2.8-2.4-4.2-15.3-29.4-30.6-58.8-46-88.2-4.6-8.8-9.2-17.5-13.7-26.3-.3-.7-.8-1.3-1.2-1.9-.2 0-.3.1-.5.1-6.5 45.6-12.9 91.1-19.4 136.6l.4.4c.3.2.6.4.9.5 16.3 9 33.7 14.5 52.2 16.3 1.8.2 3.6.5 5.3.8h15.3c.6-.1 1.3-.3 1.9-.4 6.5-.7 12.9-1.4 19.2-2.9 20.6-4.6 39.1-13.6 55.6-27 .9-.7 1.1-1.5.9-2.6-1-7.4-2.1-15.2-3.2-22.9z"/><path d="M1000.4 149.8h-17.9v-41.9c0-2.6-.2-2.8-2.9-2.8h-7.2c-2.3 0-2.7.3-2.7 2.7v51.4c0 2.3.3 2.6 2.7 2.6h28.3c.8 0 1.5-.3 2.3-.5v-10.8c-.9-.3-1.7-.7-2.6-.7z"/><path class="st1" d="M225.5 36.8C202.3 14.7 174.6 2.5 142.6.3 123-1 103.8 1.6 85.3 9.1c24.4 52.2 48.7 104.2 73.2 156.6.6-1.1.9-1.7 1.3-2.4 16.3-30.3 32.6-60.6 48.9-91 1.8-3.4 3.6-6.7 5.4-10.1.4-.8.8-1.5 1.3-2.3 1.3-2 3.1-3 5.4-2.6 2.6.4 4.2 1.9 4.7 4.5 1.1 5.9 2.1 11.8 3.1 17.8 2.1 12.3 4.1 24.6 6.2 37 1.9 11.5 3.9 23.1 5.8 34.6 2.1 12.3 4.1 24.6 6.2 37 .7 4 1.3 7.9 2.1 12.2 27.8-46.5 26-116.5-23.4-163.6zM14.4 73.3C2 98.1-2.4 124.3 1.3 151.7c2.4 18 8.3 34.7 17.6 50.2h.4C28.9 145.1 38.4 88.2 48 31.4 33.8 43 22.6 56.9 14.4 73.3z"/><path d="M364.7 158.6c-.7-4.3-1.5-8.6-2.2-12.8l-5.4-32.4c-.4-2.4-.8-4.9-1.2-7.3-.3-1.4-.7-1.7-2.1-1.9-1.5-.1-2.1.7-2.7 1.9-5.7 10.7-11.4 21.3-17.2 32-.3.6-.6 1.1-1.1 1.8-.3-.4-.5-.7-.6-.9-2-3.6-3.9-7.3-5.9-10.9l-12-22.2c-.8-1.4-1.6-1.8-3.1-1.5-1.3.2-1.4 1.2-1.6 2.2-.1.3-.1.7-.2 1-1.1 6.8-2.3 13.6-3.4 20.4-1.8 10.5-3.5 20.9-5.3 31.4-.3 1.9.1 2.5 2.1 2.5h8c2.1 0 2.3-.3 2.6-2.4 1-6.7 1.9-13.5 2.9-20.2.1-1 .4-2 .5-3 .7.6 1.1 1.2 1.4 1.9 4 7.6 8 15.3 12 22.9.8 1.6 1.5 1.9 3.2 1.7 1.2-.1 1.6-1.1 2.1-2 4-7.6 7.9-15.3 11.9-22.9.3-.6.6-1.1.9-1.7.1 0 .2.1.4.1.8 5.7 1.7 11.4 2.5 17 .3 2.3.7 4.6 1 6.9.1 1 .7 1.6 1.7 1.6 3.1 0 6.3.1 9.4 0 1.3 0 1.6-.5 1.5-1.8.1-.6 0-1-.1-1.4zm369.1-53.4c-7.2-.4-14.4-.1-21.6-.1-1.3 0-1.8.5-1.9 1.8v52.8c.1 1.7.4 2 2.2 2.1h.6c6.1 0 12.3.1 18.4 0 2.1 0 4.2-.2 6.2-.6 15.1-3.2 24.9-18.4 21.7-33.5-2.7-12.5-13.1-21.8-25.6-22.5zm3.3 43.2c-1.1.5-2.3 1-3.4 1-3.5.1-6.9 0-10.5 0V117c3.4 0 6.7-.4 9.9.1 7.2 1 12.1 6.2 13.3 13.6 1.1 7.4-2.7 14.8-9.3 17.7zm218.6-41.6c-.1-1.2-.6-1.7-1.8-1.7-3.1-.1-6.2 0-9.2 0-1.2 0-1.7.5-1.8 1.7-.1.6 0 1.2 0 1.8v24.1c0 .7 0 1.4-.1 2.5-.8-.7-1.3-1.1-1.8-1.6-9.2-8.8-18.3-17.6-27.4-26.4-.8-.8-1.6-1.6-2.5-2.4-1-.9-2.1-.7-3.2-.3-1 .3-.9 1.3-.9 2.2v53.1c.1 1.3.5 1.9 1.8 1.9 3.1.1 6.2.1 9.2 0 1.3 0 1.6-.5 1.7-1.7v-27.5c0-.6.1-1.3.1-2.2.7.6 1.1 1 1.5 1.4 8 8 15.9 16 23.9 24l6.1 6.1c1 1 2.2.9 3.4.6 1.2-.4.9-1.5.9-2.4v-51.5c.2-.7.2-1.2.1-1.7zM696.4 108v-1.4c-.1-.9-.6-1.5-1.5-1.5h-9.6c-1 0-1.6.7-1.7 1.7-.1.5 0 1.1 0 1.6v24.7c0 .6.3 1.3-.3 1.9-.3-.2-.5-.4-.7-.6-7.1-6.8-14.2-13.6-21.2-20.4-3.1-3-6.2-5.9-9.2-8.9-1-1-2.2-.9-3.3-.6-1.2.3-1 1.4-1 2.3v.4c0 17.2 0 34.5.1 51.7v1.2c0 1.1.6 1.6 1.7 1.6h9.4c1 0 1.6-.6 1.7-1.6.1-.5 0-1.1 0-1.6v-28.3c.6.5.8.7 1 .8 8.2 8.2 16.3 16.4 24.5 24.6l6.1 6.1c1 1 2.2.9 3.4.6 1.2-.4.9-1.5.9-2.4v-.4c-.3-17.1-.3-34.3-.3-51.5zm-231 9.4c-2.1-6.9-8.6-12.1-15.7-12.3-8.3-.2-16.6-.1-24.9-.1-1.5 0-2 .5-2.1 2v52.7c.1 1.3.6 1.8 1.9 1.9.7.1 1.5 0 2.2 0h6.4c1.9 0 2.2-.4 2.3-2.2v-19.8h5.5l.9 1.8c3.1 6.2 6.3 12.4 9.3 18.6.6 1.3 1.4 1.8 2.8 1.7 3-.1 6 0 9 0 .4 0 .8 0 1.2-.1.9-.2 1.4-.8 1.2-1.8-.1-.5-.4-1-.7-1.5-1.8-3.4-3.6-6.7-5.4-10.1-1.7-3.1-3.4-6.2-5-9.3 1.8-1.1 3.5-2 5-3.1 6-4.4 8.3-11.5 6.1-18.4zm-15 10.9c-.6.4-1.3.7-2 .8-4.2.1-8.4 0-12.8 0v-12.3c.3-.1.6-.2.9-.2 3.6 0 7.2-.1 10.8 0 2.9.1 5.4 2 6.1 4.6.7 2.7-.5 5.7-3 7.1zm129.8-10.1v-10.4c0-2.3-.4-2.7-2.7-2.7h-7.4c-2.4 0-2.7.2-2.7 2.6v17.1c0 .7-.1 1.4-.1 2.1-2.9.4-21.6.3-23.1-.2v-20c0-.9-.6-1.6-1.5-1.6h-9.6c-.9 0-1.5.6-1.6 1.5-.1.5 0 1.1 0 1.6v52c.1.9.6 1.5 1.5 1.5h9.6c.9 0 1.5-.6 1.5-1.5v-21.1h23.2v20.3c0 1.8.3 2.3 1.7 2.3 3.1.1 6.2.1 9.2 0 1.2 0 1.6-.5 1.8-1.8.1-.5 0-1.1 0-1.6.2-13.4.2-26.7.2-40.1zm295.7 31.6h-22c-.4-2.2-.4-9.3.1-10.9h17.2c2 0 2.5-.5 2.5-2.5v-6.8c0-2.4-.3-2.6-2.7-2.6h-17.2v-10h21.1c2.5 0 2.8-.3 2.8-2.7v-6.4c0-2.5-.3-2.8-2.8-2.8H843c-1.5 0-1.9.4-2 1.9v52.2c0 2.3.3 2.6 2.5 2.6H876c1-.1 1.6-.7 1.6-1.7 0-2.8.1-5.6 0-8.4 0-1.3-.5-1.7-1.7-1.9zM395.8 117h13.8c1.7 0 2.3-.4 2.3-1.8.1-2.8.1-5.6 0-8.4 0-1.2-.5-1.6-1.8-1.7h-32.9c-1.4 0-1.9.5-2 2V159c0 2.5.3 2.8 2.7 2.8h32.3c.9 0 1.6-.5 1.6-1.5v-8.8c0-1-.7-1.5-1.7-1.6h-21.9c-.4-2.7-.3-9.4.1-10.9h16.8c2.4 0 2.7-.3 2.8-2.8v-6.6c0-2.2-.3-2.5-2.6-2.5h-17.2v-10c2.7-.1 5.2-.1 7.7-.1zm111 0c2.4.6 4.5 1.7 6.4 3.3 1.2.9 1.7 1 2.4.2 2.1-2.1 4.2-4.3 6.3-6.5.7-.8.6-1.5-.1-2.3-.3-.3-.7-.6-1-.9-6.7-5.6-14.3-7.4-22.8-6.2-15.4 2.1-27.4 16.8-24.5 33.9 2.5 14.2 14.5 24 28.9 24 7.2 0 13.5-2.3 18.9-7.1 1.6-1.4 1.6-2.1.2-3.7l-5.1-5.4c-1.3-1.3-1.7-1.3-3.2-.3-.3.2-.5.4-.8.6-6.8 4.6-15.8 3.7-21.2-2.3-3.9-4.4-5-9.6-3.8-15.3 1.8-9 10.5-14.3 19.4-12zm114.8.6c-1.8-3.9-3.7-7.9-5.5-11.8-.7-1.4-1.4-1.8-2.6-1.6-1 .2-1.4 1-1.7 1.8-2.4 5.1-4.7 10.2-7.1 15.3-5.8 12.5-11.6 25-17.4 37.4-1 2.2-.6 3 1.8 3s4.8-.1 7.2 0c2.1.1 3.4-.7 4.2-2.7.7-1.9 1.7-3.8 2.5-5.6.3-.1.5-.2.7-.2h20.1c1 0 1.4.4 1.8 1.3.8 1.8 1.6 3.5 2.4 5.3.6 1.3 1.5 1.9 3 1.9 2.5 0 5-.1 7.4 0 2.6.1 3.6-.5 2.2-3.4-6.4-13.5-12.7-27.1-19-40.7zm-13.7 24.6c2-4.4 3.9-8.6 6-13.3 2.1 4.6 4.1 8.8 6.1 13.3h-12.1zm216.4-9.7c-2.7-2.2-5.9-3.7-9.1-5-1.9-.8-3.8-1.7-5.6-2.7-1.1-.6-2.1-1.5-2.8-2.5-1.8-2.4-.9-5.2 1.9-6.4 1.4-.6 2.9-.6 4.3-.2 3.2.7 6 2.3 8.7 4.1 1.6 1.1 2.6.9 3.7-.6 1.3-1.9 2.6-3.8 3.8-5.7.9-1.5.7-2.4-.7-3.4-3.5-2.5-7.4-4.3-11.6-5.2-5-1-10-.8-14.7 1.4-6.1 2.8-9.6 8.6-9.2 15.3.3 4.8 2.7 8.4 6.3 11.4 2.8 2.3 6 3.9 9.3 5.4 1.8.8 3.5 1.7 5.1 2.7 1 .7 1.9 1.7 2.5 2.8 1.9 3.3-.1 7-3.9 7.3-1.2.1-2.4 0-3.6-.2-2.7-.5-5-1.7-7.3-3.1-.5-.3-1-.7-1.5-1-1.2-.6-2.2-.4-2.9.7-1.3 2.1-2.4 4.3-3.7 6.4-.5.9-.4 1.7.4 2.3 1.4 1.1 2.8 2.2 4.4 3.1 4.1 2.2 8.5 3.1 13.2 3.4 2.5-.4 5.1-.6 7.4-1.3 6.5-2.1 10.8-6.3 12.1-13.2 1.2-6.6-1.4-11.7-6.5-15.8zm-41.6-24.4v-1.4c-.1-1-.6-1.6-1.6-1.6h-9.4c-1.1 0-1.6.6-1.8 1.8-.1.5 0 1.1 0 1.6v50.7c0 2.1.4 2.5 2.4 2.6h8.2c1.8 0 2.2-.4 2.2-2.3v-51.4zm108.5 39c-4.1 0-7.5 3.6-7.5 7.8 0 4.2 3.5 7.6 7.7 7.5 4.3-.1 7.7-3.5 7.6-7.7 0-4.1-3.5-7.6-7.8-7.6z"/><path class="st2" d="M607.9 142.2H620"/></svg>