<svg xmlns="http://www.w3.org/2000/svg" width="155" height="61" viewBox="0 0 155 61"><g fill="#af1e39"><path d="M38.9 9c-1-.4-2.3-.7-3.7-.7-2.7 0-5.2 1.2-7.5 3.5V9.4c0-.3-.1-.6-.3-.8-.2-.2-.5-.3-.8-.3-.3 0-.6.1-.8.3-.2.2-.3.5-.3.8v17.2c0 .3.1.6.3.8.2.2.5.3.8.3.3 0 .6-.1.8-.3s.3-.5.3-.8V18c0-2.1.7-3.9 2.2-5.3 1.5-1.5 3.2-2.2 5.3-2.2 1.2 0 2.1.2 2.9.6.1.1.3.1.5.1.3 0 .6-.1.8-.3.2-.2.3-.5.3-.8 0-.3-.1-.6-.3-.8-.1-.1-.3-.2-.5-.3zm12.9-.7c-2.7 0-5 .9-6.8 2.8-2 1.9-2.9 4.2-2.9 6.9s.9 5 2.8 6.8c1.9 1.9 4.2 2.8 6.8 2.8 2.7 0 5.2-1.2 7.5-3.5v2.4c0 .3.1.6.3.8.2.2.5.3.8.3.3 0 .6-.1.8-.3s.3-.5.3-.8V18c0-2.7-.9-5-2.8-6.8-1.9-1.9-4.2-2.9-6.8-2.9zm5.3 15c-1.5 1.5-3.2 2.2-5.3 2.2-2.1 0-3.8-.7-5.3-2.2-1.5-1.5-2.2-3.2-2.2-5.3 0-2.1.7-3.8 2.2-5.3 1.5-1.5 3.2-2.2 5.3-2.2 2.1 0 3.8.7 5.3 2.2 1.5 1.5 2.2 3.2 2.2 5.3 0 2.1-.8 3.9-2.2 5.3zM83.5 1.1c0-.3-.1-.6-.3-.8-.2-.2-.4-.3-.7-.3-.3 0-.6.1-.8.3-.2.2-.3.5-.3.8v10.7l-.7-.7c-1.9-1.9-4.2-2.8-6.8-2.8s-5 .9-6.8 2.8c-1.9 1.9-2.8 4.2-2.8 6.8 0 2.7.9 5 2.8 6.8 1.9 1.9 4.2 2.8 6.8 2.8s5-.9 6.8-2.8c1.9-1.9 2.8-4.2 2.8-6.8V1.1zm-4.3 22.2c-1.5 1.5-3.2 2.2-5.3 2.2s-3.8-.7-5.3-2.2c-1.5-1.5-2.2-3.2-2.2-5.3 0-2.1.7-3.8 2.2-5.3 1.5-1.5 3.2-2.2 5.3-2.2s3.8.7 5.3 2.2c1.5 1.5 2.2 3.2 2.2 5.3 0 2.1-.7 3.9-2.2 5.3zm9.7-15c-.3 0-.6.1-.8.3-.2.2-.3.5-.3.8v17.2c0 .3.1.6.3.8.2.2.5.3.8.3.3 0 .6-.1.8-.3.2-.2.3-.5.3-.8V9.4c0-.3-.1-.6-.3-.8-.2-.2-.5-.3-.8-.3zm0-3.2c.4 0 .7-.1 1-.4.3-.3.4-.6.4-1s-.1-.7-.4-1c-.3-.3-.6-.4-1-.4s-.7.1-1 .4c-.3.3-.4.6-.4 1s.1.7.4 1c.3.3.6.4 1 .4zM110 22.3c0-1.1-.4-2-1.2-2.8-.2-.2-.5-.4-.8-.6-.4-.2-.8-.4-1.3-.6l-8.8-2.9c-.4-.1-.6-.3-.8-.6-.2-.3-.3-.6-.3-.9 0-.6.2-1.1.5-1.5 1.3-1.3 2.9-2 5-2s3.8.7 5.3 2.2l.5.5c.2.2.4.3.7.3.3 0 .6-.1.8-.3.2-.2.3-.5.3-.8 0-.2-.1-.4-.2-.6-1-1.1-2.1-2-3.4-2.6-1.3-.6-2.6-.9-4-.9-2.7 0-4.8.8-6.5 2.5-.8.8-1.2 1.8-1.2 2.9 0 1.1.4 2 1.2 2.8.2.2.5.4.8.6.4.2.8.4 1.3.6l8.8 2.9c.7.3 1.1.7 1.1 1.5 0 .6-.2 1.1-.5 1.5-1.3 1.3-2.9 2-5 2s-3.8-.7-5.3-2.2l-.5-.5c-.2-.2-.4-.3-.7-.3-.3 0-.6.1-.8.3-.2.2-.3.5-.3.8 0 .2.1.4.2.6 2.1 2.3 4.5 3.5 7.4 3.5 2.7 0 4.8-.8 6.5-2.5.8-.9 1.2-1.8 1.2-2.9zM9.7 35.5c1.9 0 3.5.6 4.9 1.8.2.2.4.3.7.3.3 0 .6-.1.8-.3.2-.2.3-.5.3-.8 0-.2 0-.3-.1-.5-.1-.1-.2-.3-.3-.4-.9-.7-1.8-1.3-2.9-1.7-1.1-.4-2.2-.6-3.4-.6-2.7 0-5 .9-6.8 2.8C.9 38 0 40.3 0 43s.9 5 2.8 6.8c1.9 1.9 4.2 2.8 6.8 2.8 1.2 0 2.3-.2 3.4-.6 1.1-.4 2-1 2.9-1.7.2-.2.3-.5.3-.8s0-.5-.2-.7c-.2-.2-.5-.3-.8-.3-.3 0-.5.1-.6.2-.7.6-1.4 1-2.3 1.3-.8.3-1.7.5-2.6.5-2.1 0-3.8-.7-5.3-2.2-1.5-1.5-2.2-3.2-2.2-5.3 0-2.1.7-3.9 2.2-5.3 1.4-1.5 3.2-2.2 5.3-2.2zm40.7-2.2c-2.4 0-4.7 1-6.8 3.1v-2c0-.3-.1-.6-.3-.8-.2-.2-.5-.3-.8-.3-.3 0-.6.1-.8.3-.2.2-.3.5-.3.8v17.2c0 .3.1.6.3.8.2.2.5.3.8.3.3 0 .6-.1.8-.3.2-.2.3-.5.3-.8v-9.3c0-1.9.7-3.5 2-4.8 1.3-1.3 3-2 4.8-2 1.9 0 3.5.7 4.8 2 1.3 1.3 2 2.9 2 4.8v9.3c0 .3.1.6.3.8.2.2.5.3.8.3.3 0 .6-.1.8-.3.2-.2.3-.5.3-.8v-9.3c0-2.5-.9-4.6-2.6-6.3-1.8-1.8-3.9-2.7-6.4-2.7zm21.5 2.2c1.9 0 3.5.6 4.9 1.8.2.2.4.3.7.3.3 0 .6-.1.8-.3.2-.2.3-.5.3-.8 0-.2 0-.3-.1-.5-.1-.1-.2-.3-.3-.4-.9-.7-1.8-1.3-2.9-1.7-1.1-.4-2.2-.6-3.4-.6-2.7 0-5 .9-6.8 2.8-1.9 1.9-2.8 4.2-2.8 6.8s.9 5 2.8 6.8c1.9 1.9 4.2 2.8 6.8 2.8 1.2 0 2.3-.2 3.4-.6 1.1-.4 2-1 2.9-1.7.2-.2.3-.5.3-.8s-.1-.6-.3-.8c-.2-.2-.5-.3-.8-.3-.3 0-.5.1-.6.2-.7.6-1.4 1-2.3 1.3-.8.3-1.7.5-2.6.5-2.1 0-3.8-.7-5.3-2.2-1.5-1.5-2.2-3.2-2.2-5.3 0-2.1.7-3.9 2.2-5.3 1.4-1.3 3.2-2 5.3-2zm19.3-2.2c-2.7 0-5 .9-6.8 2.8-1.9 1.9-2.8 4.2-2.8 6.8s.9 5 2.8 6.8c1.9 1.9 4.2 2.8 6.8 2.8 2.4 0 4.5-.8 6.3-2.3.2-.2.3-.4.3-.7 0-.3-.1-.6-.3-.8-.2-.2-.5-.3-.8-.3-.3 0-.5.1-.7.2-.7.6-1.4 1-2.2 1.3-.8.3-1.7.5-2.6.5-2.1 0-3.8-.7-5.3-2.2-1.1-1.1-1.8-2.5-2.2-4.2h16.1c.3 0 .6-.1.8-.3.2-.2.3-.5.3-.8 0-2.7-.9-5-2.8-6.8-2-1.8-4.2-2.8-6.9-2.8zm-7.5 8.6c.3-1.7 1.1-3.1 2.2-4.2 1.5-1.5 3.2-2.2 5.3-2.2 2.1 0 3.8.7 5.3 2.2 1.1 1.1 1.8 2.5 2.2 4.2h-15zm29.6-8.6c-2.7 0-5 .9-6.8 2.8-1.9 1.9-2.8 4.2-2.8 6.8v16.9c0 .3.1.6.3.8.2.2.5.3.8.3s.6-.1.8-.3c.2-.2.3-.5.3-.8V49.2l.7.7c1.9 1.9 4.2 2.8 6.8 2.8 2.7 0 5-.9 6.8-2.8C122 48 123 45.7 123 43s-.9-5-2.8-6.8c-1.9-1.9-4.2-2.9-6.9-2.9zm5.3 15c-1.5 1.5-3.2 2.2-5.3 2.2-2.1 0-3.8-.7-5.3-2.2-1.5-1.5-2.2-3.2-2.2-5.3 0-2.1.7-3.8 2.2-5.3 1.5-1.5 3.2-2.2 5.3-2.2 2.1 0 3.8.7 5.3 2.2 1.5 1.5 2.2 3.2 2.2 5.3 0 2.1-.7 3.9-2.2 5.3z"/><path d="M135.5 50.5c-3.1 0-4.6-1.6-4.6-4.7V35.5h3.2c.3 0 .6-.1.8-.3.2-.2.3-.5.3-.8 0-.3-.1-.6-.3-.8-.2-.2-.5-.3-.8-.3h-3.2v-16c0-2.5-.9-4.6-2.6-6.3-1.7-1.8-3.8-2.6-6.3-2.6-2.4 0-4.7 1-6.8 3.1V1.1c0-.3-.1-.6-.3-.8-.4-.2-.6-.3-.9-.3s-.6.1-.8.3c-.2.2-.3.5-.3.8v25.5c0 .3.1.6.3.8.2.2.5.3.8.3s.6-.1.8-.3c.2-.2.3-.5.3-.8v-9.3c0-1.9.7-3.5 2-4.8 1.3-1.3 3-2 4.8-2 1.9 0 3.5.7 4.8 2 1.3 1.3 2 2.9 2 4.8v16h-1.8c-.3 0-.6.1-.8.3-.2.2-.3.5-.3.8 0 .3.1.6.3.8.2.2.5.3.8.3h1.8v10.4c0 4.5 2.3 6.8 6.8 6.8.3 0 .6-.1.8-.3.2-.2.3-.5.3-.8 0-.3-.1-.6-.3-.8-.3-.2-.5-.3-.8-.3zm18.3-6c-.2-.2-.5-.4-.8-.6-.4-.2-.8-.4-1.3-.6l-8.8-2.9c-.4-.1-.6-.3-.8-.6-.2-.3-.3-.6-.3-.9 0-.6.2-1.1.5-1.5 1.3-1.3 2.9-2 5-2s3.8.7 5.3 2.2l.5.5c.2.2.4.3.7.3.3 0 .6-.1.8-.3.2-.2.3-.5.3-.8 0-.2-.1-.4-.2-.6-1-1.1-2.1-2-3.4-2.6-1.3-.6-2.6-.9-4-.9-2.7 0-4.8.8-6.5 2.5-.8.8-1.2 1.8-1.2 2.9 0 1.1.4 2 1.2 2.8.2.2.5.4.8.6.4.2.8.4 1.3.6l8.8 2.9c.7.3 1.1.7 1.1 1.5 0 .6-.2 1.1-.5 1.5-1.3 1.3-2.9 2-5 2s-3.8-.7-5.3-2.2l-.5-.5c-.2-.2-.4-.3-.7-.3-.3 0-.6.1-.8.3-.2.2-.3.5-.3.8 0 .2.1.4.2.6 2.1 2.3 4.5 3.5 7.4 3.5 2.7 0 4.8-.8 6.5-2.5.8-.8 1.2-1.8 1.2-2.8 0-1.2-.4-2.1-1.2-2.9zM24.7 34.4c-.4-.5-.8-.9-1.2-1.5-.6-.8-1.2-1.7-1.7-2.6-.1-.2-.1-.2.1-.3.8-.3 1.4-.8 1.7-1.6.3-.7.4-1.5.3-2.3-.1-.9-.6-1.6-1.1-2.4-.7-1-1.3-2.1-1.4-3.4-.1-.7-.1-1.4 0-2.2-.2.3-.4.5-.6.8-1 1.3-2 2.7-2.7 4.2-.6 1.3-.9 2.6-.7 3.9 0 0 0 .1-.1.1-.4-.2-.9-.3-1.3-.3-.4-.1-.9-.1-1.4-.1-2 0-3.9.5-5.7 1.1-.1 0-.3 0-.4.1 2.1.7 3.2 1.5 4.5 3.3l.9 1.2c1.1 1.3 4.2 2.2 5.5.1.1-.1.1-.1.2 0 .8.7 1.6 1.5 2.3 2.3.2.3.4.5.6.8-.2.1-.3.3-.5.4-3.8 3.8-3.8 9.9 0 13.7 3.3 3.3 8.5 3.7 12.3 1.1H37v-2.5c2.6-3.8 2.2-9-1.1-12.3-3.1-2.9-7.6-3.5-11.2-1.6z"/></g></svg>