<?xml version="1.0" encoding="UTF-8"?>
<!-- Generated by Pixelmator Pro 3.6.17 -->
<svg width="800" height="432" viewBox="0 0 800 432" xmlns="http://www.w3.org/2000/svg">
    <g id="Groot-wit-copy">
        <path id="Chord" fill="#673ab7" fill-rule="evenodd" stroke="none" d="M 176.194138 24.259338 C 172.80513 11.652283 161.967499 4.746857 143.680923 3.542816 C 143.116104 3.401184 142.55127 3.330353 141.986435 3.330353 C 141.350998 3.330353 140.715561 3.401184 140.080124 3.542816 L 138.279709 3.542816 C 100.57692 8.500641 69.687927 27.765045 45.611801 61.336609 C 37.35107 55.316406 33.220776 46.569519 33.220776 35.095703 C 33.220776 29.500458 34.17392 23.303192 36.080242 16.503937 C 17.017033 16.503937 6.744241 21.178375 5.261542 30.527435 C 3.778844 39.876465 3.037512 45.436249 3.037512 47.206879 C 3.037512 61.655396 12.251255 73.837311 30.679028 83.75296 C 15.922693 110.454407 8.544634 136.270111 8.544634 161.200897 L 8.544634 163.963104 C 8.615238 177.632538 12.286616 189.247849 19.558878 198.809357 C 26.831139 208.37088 36.433205 213.611938 48.36536 214.532669 C 49.636234 214.6035 50.907108 214.638916 52.177982 214.638916 C 68.346397 214.638916 82.643616 207.520996 95.069992 193.284958 C 107.990593 178.4823 114.450821 163.431976 114.450821 148.133545 L 114.450821 146.433746 C 114.097801 132.764313 108.837845 125.929688 98.670799 125.929688 C 97.117508 125.929688 95.423012 126.10675 93.587303 126.460876 C 95.211197 129.506378 96.023148 133.083069 96.023148 137.190979 C 96.023148 139.953186 95.670128 142.892456 94.964081 146.008789 C 93.269585 153.941315 89.633499 161.696625 84.055748 169.275024 C 78.477997 176.853439 72.158997 180.642563 65.098541 180.642563 C 52.672153 180.642563 46.053078 176.127472 45.241127 167.097137 C 44.42918 158.066803 44.023209 152.312286 44.023209 149.833374 C 44.023209 136.234772 47.447472 121.396942 54.296108 105.319397 C 55.637585 102.203064 57.155575 99.192963 58.850075 96.289124 C 59.838531 94.447662 60.791687 92.606171 61.709541 90.764709 C 65.027962 91.048004 68.522812 91.189667 72.194252 91.189667 C 77.348381 91.189667 82.820152 90.906372 88.609711 90.339752 C 111.71981 87.478302 129.88031 82.707275 143.091415 76.026642 C 139.469894 85.184082 136.542175 94.611877 134.308228 104.31012 C 130.107269 122.547852 128.006821 138.217896 128.006821 151.320709 C 128.006821 154.649536 128.112717 157.87207 128.324539 160.988434 C 129.524811 176.428513 134.643555 184.148438 143.680923 184.148438 C 146.505096 184.148438 148.940933 183.70578 150.988464 182.82045 C 153.03598 181.935135 154.765778 181.06752 156.177856 180.217606 C 156.319077 180.14679 156.424973 180.075958 156.495575 180.005127 C 156.213165 177.242935 156.07196 174.445313 156.07196 171.612274 C 156.07196 162.900665 157.307526 153.69342 159.778671 143.990234 C 163.026459 131.099915 167.315643 119.980377 172.646271 110.631317 C 177.976913 101.282288 183.219223 96.466187 188.373337 96.182892 C 190.49147 96.891144 191.550522 98.874268 191.550522 102.132233 C 191.550522 103.548767 191.338715 105.213165 190.915085 107.125458 C 189.503006 113.358154 187.278976 120.688538 184.242996 129.116852 C 178.453445 143.06958 175.558701 154.507813 175.558701 163.431915 C 175.488083 164.140167 175.452789 164.848419 175.452789 165.556671 C 175.452789 177.951233 181.559998 184.148438 193.774551 184.148438 C 201.329254 184.148438 208.830841 180.500961 216.279617 173.205872 C 223.728409 165.910767 230.488678 157.588837 236.560654 148.239807 C 236.614014 148.157654 236.667282 148.075562 236.720459 147.993561 C 236.613922 149.844452 236.560654 151.697174 236.560654 153.551727 L 236.560654 155.782745 C 236.913681 174.76413 245.668488 184.254669 262.825378 184.254669 C 277.511139 184.254669 290.625732 175.454681 302.169556 157.85437 C 313.713379 140.254089 319.485199 121.680237 319.485199 102.132233 C 318.92038 90.233459 316.060913 81.982361 310.906799 77.378662 C 305.752716 72.774963 299.645447 70.473145 292.585022 70.473145 C 275.922363 71.748016 262.419464 81.344788 252.075912 99.263794 C 248.786423 104.962433 246.02002 110.678986 243.776688 116.413361 C 238.59671 126.254547 233.102463 135.163483 227.293869 143.14035 C 220.692352 152.206085 215.450043 156.738892 211.566803 156.738892 C 210.013504 156.738892 209.236862 155.853546 209.236862 154.082916 C 209.236862 153.16217 209.448669 152.028961 209.872299 150.683289 C 211.143173 146.646179 213.155365 141.440582 215.908951 135.066193 C 219.792206 126.354584 222.828156 118.262848 225.016876 110.79068 C 227.205612 103.318512 228.299973 97.351532 228.299973 92.889496 C 228.299973 88.994049 227.699844 85.381958 226.499573 82.053162 C 223.957794 74.97052 216.473862 71.110565 204.047455 70.473145 C 193.52739 70.473145 183.784119 75.094482 174.817352 84.33728 C 165.850571 93.580078 158.896149 105.425568 153.953827 119.874084 C 157.554672 102.450867 164.261978 86.60376 174.076004 72.332306 C 183.89003 58.060852 196.775131 48.552612 212.731766 43.807251 C 212.802368 43.028168 212.837677 42.284515 212.837677 41.576233 C 212.837677 36.547607 211.001984 32.227234 207.330551 28.615143 C 203.094284 24.365601 197.869644 22.240814 191.656433 22.240814 C 189.891327 22.240814 188.232132 22.453308 186.678848 22.878265 C 186.467026 22.949066 186.184616 23.019897 185.831589 23.090729 C 182.716202 23.941376 179.697067 25.237396 176.774216 26.978821 C 176.625381 26.067383 176.432037 25.160858 176.194138 24.259338 Z M 349.986176 70.473145 C 354.716675 70.473145 359.676605 71.783417 364.865997 74.403961 C 370.05542 77.024536 373.214935 80.849091 374.344604 85.877747 C 383.452576 75.607971 392.984039 70.473145 402.93927 70.473145 C 412.329681 70.473145 418.295685 73.908142 420.837433 80.77829 C 421.896484 83.611328 422.426025 86.515167 422.426025 89.489838 C 422.426025 93.668579 421.013947 98.767975 418.189758 104.788208 C 415.365601 110.808441 409.470215 115.553711 400.503448 119.02417 C 398.102905 119.732422 395.914185 120.086578 393.937256 120.086578 C 391.04248 120.086578 388.606628 119.272064 386.62973 117.643066 C 383.452545 114.951691 381.863953 111.516663 381.863953 107.337921 L 381.863953 103.832062 C 381.863953 101.636475 383.770264 99.086731 387.582886 96.182892 C 380.663666 96.395355 374.274017 100.981262 368.413849 109.940765 C 362.553711 118.900269 358.140961 129.612579 355.175598 142.077942 C 353.410492 149.585541 352.527924 156.774231 352.527924 163.644379 C 352.527924 168.177246 352.91626 172.56842 353.692902 176.817978 C 348.75061 181.775803 342.96109 184.254669 336.32428 184.254669 C 323.827271 184.254669 317.578888 178.163712 317.578888 165.981628 C 317.578888 165.202545 317.614197 164.388062 317.684784 163.538147 C 318.320221 147.743927 321.815155 132.109314 328.169525 116.63382 C 334.523895 101.158325 340.807648 87.683838 347.020813 76.210022 C 348.079865 74.226898 349.068329 72.314606 349.986176 70.473145 Z M 542.311829 22.347046 C 548.66626 22.347046 553.996826 24.436401 558.30365 28.615143 C 562.045654 32.298065 563.916687 36.65387 563.916687 41.682495 C 563.916687 42.390747 563.881409 43.134399 563.810791 43.913483 C 545.241821 55.528961 531.138794 70.101196 521.501282 87.630676 C 511.863739 105.160126 506.091919 121.078064 504.185608 135.384918 C 503.620758 139.705322 503.338348 143.388245 503.338348 146.433746 C 503.338348 153.374695 504.856323 156.845123 507.892303 156.845123 C 512.057983 156.845123 517.423828 152.099854 523.990051 142.609161 C 530.556274 133.118439 536.663452 123.202942 542.311829 112.862335 L 552.584717 112.862335 L 547.81897 123.804901 C 544.571167 131.100006 540.229065 139.404236 534.79248 148.717865 C 529.355896 158.031494 523.195801 166.211761 516.311829 173.258972 C 509.427917 180.306183 502.20874 183.971375 494.654053 184.254669 C 484.769409 184.254669 479.544769 174.693298 478.979919 155.570251 C 466.835968 174.693298 453.31543 184.254669 438.417847 184.254669 C 421.260956 184.254669 412.506134 174.728699 412.153107 155.676483 L 412.153107 153.445496 C 412.153107 135.243164 417.324829 117.1828 427.668365 99.263794 C 438.011932 81.344788 451.514832 71.748016 468.17749 70.473145 C 477.709106 70.473145 485.440155 75.041351 491.370941 84.177917 C 496.595703 68.596191 503.091187 55.104004 510.857697 43.701019 C 518.624207 32.298035 527.308411 25.463379 536.910583 23.19696 C 537.263611 23.126129 537.58136 23.055328 537.86377 22.984497 C 539.417053 22.55954 540.899719 22.347046 542.311829 22.347046 Z M 304.658325 106.488037 C 304.658325 108.683624 304.481842 111.233337 304.128815 114.137207 C 303.352173 119.59082 301.49881 125.610931 298.568726 132.197754 C 295.638672 138.784607 292.214355 144.539124 288.295837 149.461548 C 284.377289 154.383942 280.688232 156.845123 277.228638 156.845123 C 273.133606 156.845123 271.08609 153.516357 271.08609 146.858704 C 271.08609 145.867126 271.121368 144.804749 271.191986 143.671539 C 271.827423 134.818268 274.969299 124.973602 280.617645 114.137207 C 284.07724 107.833679 287.501526 103.353973 290.890533 100.698029 C 294.279541 98.042053 296.997803 96.714081 299.045319 96.714081 C 300.174988 96.714081 301.19873 97.032776 302.116577 97.670227 C 303.811096 98.945099 304.658325 101.884338 304.658325 106.488037 Z M 475.590912 95.864166 C 469.518921 96.926544 463.058746 102.982117 456.210083 114.030975 C 450.349915 124.725708 447.243378 134.534973 446.89035 143.459045 L 446.89035 144.946411 C 446.89035 152.878937 449.714478 156.845123 455.362854 156.845123 C 458.822449 156.845123 462.546814 154.383942 466.53595 149.461548 C 470.525085 144.539124 474.055298 138.784607 477.126556 132.197754 C 480.197845 125.610931 482.192413 119.555389 483.11026 114.030975 C 483.39267 111.693726 483.533905 109.60437 483.533905 107.762878 C 483.533905 99.759521 481.239258 95.757935 476.649994 95.757935 C 476.296967 95.757935 475.943939 95.793335 475.590912 95.864166 Z M 142.515961 22.665771 L 142.833679 22.665771 C 144.31636 22.878265 145.498993 23.14386 146.381546 23.462555 C 147.264084 23.781281 148.023087 24.365601 148.658524 25.215485 C 149.505768 26.561188 149.929398 28.048523 149.929398 29.677521 C 149.929398 34.493683 146.293335 40.690887 139.021057 48.269287 C 129.207031 58.539063 113.391853 66.471466 91.575089 72.066711 C 88.327271 72.916626 84.76181 73.341583 80.878563 73.341583 C 78.619232 73.341583 76.25399 73.199921 73.782845 72.916626 C 86.491661 56.484985 99.341469 44.002075 112.332703 35.467529 C 125.323906 26.932983 135.384903 22.665771 142.515961 22.665771 Z"/>
        <path id="Mage" fill="#673ab7" fill-rule="evenodd" stroke="none" d="M 609.493164 275.678375 C 603.844788 267.037598 596.254944 262.717285 586.723328 262.717285 C 570.060669 263.992126 556.593079 273.588928 546.320129 291.507935 C 542.68042 297.856628 539.685547 304.227478 537.335388 310.620605 C 532.388123 319.788055 527.157654 328.201965 521.643982 335.862549 C 515.042542 345.034515 509.800171 349.620422 505.916931 349.620422 C 503.304565 349.620422 501.998413 347.70816 501.998413 343.883545 C 501.998413 342.042084 502.316132 339.740265 502.951569 336.978027 C 504.928467 328.620575 508.052704 318.970673 512.32428 308.028015 C 516.595825 297.085388 520.673218 287.258423 524.556396 278.546814 C 523.285522 273.518188 520.426086 269.640503 515.978027 266.913696 C 511.529968 264.18689 506.940704 262.823486 502.210205 262.823486 L 499.03302 269.304077 C 496.844299 273.695282 494.161346 279.290466 490.984161 286.089752 C 489.219055 277.448975 485.935974 271.411133 481.134888 267.976074 C 476.333801 264.541016 470.932587 262.823486 464.931244 262.823486 C 448.621582 262.823486 435.20694 272.154694 424.68689 290.817383 C 414.166809 309.480042 408.90686 327.983093 408.90686 346.327026 L 408.90686 348.451813 C 409.259888 367.433197 418.014709 376.923767 435.1716 376.923767 C 447.527405 376.923767 459.106354 370.018311 469.908813 356.207214 C 469.838226 357.057129 469.802917 357.871643 469.802917 358.650726 C 469.802917 370.832794 476.0513 376.923767 488.548309 376.923767 C 495.961792 376.923767 503.375122 373.276276 510.788605 365.981171 C 518.202087 358.686096 524.927124 350.364166 530.963745 341.015106 L 531.033508 340.906982 C 530.95166 342.535217 530.910767 344.164825 530.910767 345.795837 L 530.910767 348.026855 C 531.334412 367.00824 540.018616 376.49881 556.963745 376.49881 C 567.34259 376.49881 577.262329 371.682709 586.723328 362.050354 C 581.004395 374.869873 574.473572 384.413544 567.130737 390.681641 C 559.787842 396.949768 552.197998 400.083771 544.360901 400.083771 C 541.395508 400.083771 538.28894 399.694244 535.041138 398.915161 C 531.510925 402.95224 529.74585 407.307983 529.74585 411.982483 C 529.74585 414.390564 530.204773 416.904877 531.12262 419.525421 C 533.805542 427.103821 540.230469 430.892975 550.397522 430.892975 C 574.614868 430.892975 592.883545 414.727142 605.203979 382.39505 C 617.524475 350.062927 626.897034 318.492676 633.322083 287.68335 C 634.098694 284.425354 634.875366 281.23822 635.652039 278.121857 C 633.816284 273.093201 630.603821 269.268677 626.014526 266.648102 C 621.425293 264.027527 616.765381 262.717285 612.034912 262.717285 C 611.611328 265.408661 610.764038 269.729004 609.493164 275.678375 Z M 422.039246 195.255753 L 422.039246 195.68071 C 405.658966 195.68071 388.78479 209.526993 371.416077 237.220001 C 354.047363 264.913025 340.420898 292.322296 330.536285 319.448669 L 330.536285 315.411621 C 330.606903 312.295258 330.642181 309.108124 330.642181 305.850128 C 330.642181 290.976654 330.218567 275.643066 329.371307 259.848816 C 328.382874 240.584137 325.593994 224.188141 321.00473 210.660355 C 317.96875 203.506927 313.185364 199.222 306.654449 197.805481 C 300.123505 196.388977 294.281067 195.68071 289.126953 195.68071 C 290.962677 206.8004 291.880524 217.601227 291.880524 228.083481 C 291.880524 250.677002 287.609009 271.889099 279.065887 291.720398 C 266.568909 320.829926 254.125015 340.09433 241.733948 349.514191 C 229.34285 358.934082 220.287964 363.643921 214.569 363.643921 C 208.285217 363.643921 203.342972 359.961029 199.742142 352.595123 C 191.269592 359.890198 187.033401 367.822601 187.033401 376.392578 C 187.033401 379.083954 187.457016 381.84613 188.304276 384.679169 C 191.693298 396.507141 201.577774 402.421021 217.958008 402.421021 C 235.750336 402.421021 251.883209 390.008942 266.357147 365.184387 C 280.831085 340.359863 292.692413 313.216156 301.94162 283.752502 C 303.424286 293.738983 304.748138 304.061737 305.913086 314.721069 C 307.078064 325.380371 307.978271 334.711578 308.613708 342.714935 C 310.52002 353.622131 315.003326 359.075684 322.063782 359.075684 C 322.487427 359.075684 322.911041 359.040253 323.334656 358.969421 C 331.101166 358.190338 336.961273 352.630585 340.9151 342.289978 C 348.469788 317.430023 356.695068 296.749115 365.591248 280.246643 L 378.935425 255.493042 C 374.981567 266.825226 370.49823 283.451385 365.485321 305.37207 C 360.472443 327.292725 357.965973 347.530975 357.965973 366.087402 C 357.965973 368.070557 358.001282 370.05365 358.071899 372.036774 C 358.636719 392.29303 366.438385 402.421021 381.477173 402.421021 C 386.278229 402.421021 390.373291 401.500305 393.762268 399.658813 C 397.151276 397.817322 399.887177 395.710297 401.970001 393.337616 C 404.052826 390.964935 405.58847 388.822479 406.576935 386.910187 L 407.953705 384.14798 C 395.950897 374.444824 389.949646 359.96109 389.949646 340.696411 C 389.949646 336.517639 390.232086 332.161926 390.796906 327.629059 C 393.903473 301.706696 401.105072 277.00647 412.401764 253.527634 C 423.698486 230.048782 434.359589 216.184784 444.385437 211.935226 C 444.385437 205.915009 441.684814 201.630096 436.2836 199.080353 C 430.882385 196.530594 426.134277 195.255753 422.039246 195.255753 Z M 706.185547 270.472687 C 700.537231 265.37323 694.500549 262.823486 688.075562 262.823486 C 670.989258 262.823486 657.715881 271.464172 648.254822 288.745728 C 638.793823 306.027283 634.063416 322.52951 634.063416 338.252899 C 634.063416 341.510895 634.239929 344.80426 634.592957 348.133087 C 636.71106 367.114502 648.042969 376.605042 668.588867 376.605042 C 679.81488 376.605042 692.25885 370.248505 705.920776 357.535217 C 719.582642 344.82193 731.038208 327.345856 740.287354 305.106476 L 729.484924 305.106476 C 712.539795 336.553253 697.042297 352.276398 682.992065 352.276398 C 682.074219 352.276398 681.156372 352.205566 680.238525 352.063934 C 677.484985 351.78064 675.243286 350.735962 673.513489 348.929871 C 671.783691 347.12381 670.70697 345.123016 670.283325 342.927399 C 680.873962 342.573273 690.405518 337.526978 698.877991 327.788391 C 707.350525 318.049805 712.292786 306.912598 713.704895 294.376373 C 713.775452 293.313965 713.810791 292.251587 713.810791 291.189209 C 713.810791 282.052643 711.269043 275.147217 706.185547 270.472687 Z M 472.344666 288.533264 C 466.272705 289.312317 459.77713 295.261627 452.857941 306.381348 C 446.997803 317.07605 443.926514 326.885315 443.644104 335.809418 L 443.644104 337.296753 C 443.644104 345.229279 446.468262 349.195496 452.116577 349.195496 C 455.64679 349.195496 459.406464 346.716614 463.395599 341.758789 C 467.384735 336.800964 470.879639 331.046417 473.88031 324.494995 C 476.880981 317.943604 478.84024 311.905762 479.758118 306.381348 C 480.040527 303.902405 480.181732 301.706848 480.181732 299.794556 C 480.181732 292.216125 478.063599 288.427002 473.827362 288.427002 C 473.33312 288.427002 472.838888 288.462423 472.344666 288.533264 Z M 575.179565 306.381348 C 581.675171 295.261627 588.170715 289.170685 594.666321 288.108276 C 595.019348 288.037476 595.372375 288.002075 595.725403 288.002075 C 600.244019 288.002075 602.503357 291.932861 602.503357 299.794556 C 602.503357 301.777649 602.362183 303.973236 602.079773 306.381348 C 601.161926 311.83493 599.167358 317.855072 596.096069 324.441895 C 593.02478 331.028717 589.45929 336.783264 585.399536 341.705658 C 581.339783 346.628082 577.509521 349.089233 573.908691 349.089233 C 568.542786 349.089233 565.859863 345.229279 565.859863 337.509247 L 565.859863 335.809418 C 566.21283 326.885315 569.319458 317.07605 575.179565 306.381348 Z M 693.370911 288.002075 C 693.723877 288.002075 694.041626 288.037476 694.324036 288.108276 C 695.736145 288.604065 696.442139 290.055969 696.442139 292.464081 C 696.442139 293.101501 696.40686 293.809753 696.336243 294.588867 C 695.912659 298.200989 694.730042 302.167175 692.788391 306.487579 C 690.846802 310.807953 688.605103 314.242981 686.063354 316.792725 C 682.180115 320.546509 679.073547 322.42334 676.743591 322.42334 C 675.825745 322.42334 675.013794 322.104645 674.3078 321.467224 C 673.178101 320.333984 672.613281 318.669617 672.613281 316.473999 C 672.613281 314.278381 673.213379 311.480804 674.413696 308.081146 C 677.379028 301.352661 680.715088 296.324097 684.421814 292.99527 C 688.12854 289.666443 691.111572 288.002075 693.370911 288.002075 Z"/>
        <g id="noun-wizard-4610700">
            <path id="Path" fill="#673ab7" stroke="none" d="M 748.785889 72.489105 L 757.691528 56.182526 L 773.922485 47.283508 L 757.691528 38.359833 L 748.785889 22.072998 L 739.924622 38.359833 L 723.67395 47.283508 L 739.924622 56.182526 Z"/>
            <path id="path1" fill="#673ab7" stroke="none" d="M 666.730225 114.914886 L 679.529907 91.427856 L 702.94342 78.583069 L 679.529907 65.743256 L 666.730225 42.261169 L 653.930603 65.743256 L 630.536743 78.583069 L 653.930603 91.427856 Z"/>
            <path id="path2" fill="#673ab7" stroke="none" d="M 768.171631 133.704651 L 752.846497 105.624939 L 737.550903 133.704651 L 709.559082 149.082825 L 737.550903 164.431366 L 752.846497 192.550598 L 768.171631 164.431366 L 796.178284 149.082825 Z"/>
        </g>
    </g>
</svg>
