<?xml version="1.0" encoding="utf-8"?>
<!-- Generator: Adobe Illustrator 22.0.1, SVG Export Plug-In . SVG Version: 6.00 Build 0)  -->
<svg version="1.1" id="Layer_1" xmlns="http://www.w3.org/2000/svg" xmlns:xlink="http://www.w3.org/1999/xlink" x="0px" y="0px"
	 viewBox="0 0 1193.1 264.2" style="enable-background:new 0 0 1193.1 264.2;" xml:space="preserve">
<g id="hp9FrG.tif">
	<g>
		<path d="M1193.1,32.5c-1.7,3.8-2.8,7.9-5.1,11.2c-6.3,9.2-19,12.8-29.4,8.9c-10.9-4.1-17.7-14.6-16.8-25.7c1-11.6,9.2-21,20.6-23
			c16.5-2.9,28,8.2,30.1,19.7c0.1,0.5,0.4,0.9,0.6,1.4C1193.1,27.5,1193.1,30,1193.1,32.5z"/>
		<path d="M911.3,254.4c2-3.3,3.7-6.2,5.4-9c11.2-18.5,22.4-37,33.6-55.6c6.8-11.3,13.5-22.7,20.3-34c5.6-9.2,11.2-18.4,17-27.6
			c1.1-1.8,1.1-3.1,0-5c-20.4-34.5-40.7-69-61-103.4c-2.3-3.9-4.7-7.9-7-11.8c-0.4-0.7-0.8-1.4-1.3-2.4c1-0.1,1.7-0.1,2.5-0.1
			c17.2,0,34.5,0,51.7-0.1c2,0,2.9,0.7,3.9,2.3c13.4,22.9,26.9,45.8,40.4,68.6c0.1,0.2,0.3,0.4,0.7,0.9c0.7-1,1.4-1.9,1.9-2.8
			c13.2-22.4,26.4-44.7,39.6-67.1c0.5-0.9,1.8-1.9,2.7-1.9c17.7-0.1,35.5-0.1,53.2-0.1c0.3,0,0.6,0.1,1.2,0.2
			c-0.7,1.3-1.3,2.5-1.9,3.6c-15,25.6-30.1,51.2-45.1,76.9c-7.2,12.3-14.3,24.6-21.6,36.8c-1.2,2-1.1,3.5,0.1,5.4
			c15.2,24.9,30.3,49.8,45.4,74.7c10,16.5,20,33,30,49.6c0.2,0.4,0.4,0.9,0.8,1.6c-1,0.1-1.8,0.1-2.6,0.1c-17.2,0-34.5,0-51.7,0.1
			c-1.7,0-2.7-0.5-3.6-2c-10-16.3-20.1-32.6-30.1-48.9c-5.5-9-11.1-18-16.6-27c-0.4-0.7-0.9-1.4-1.7-2.5c-1.9,3.2-3.7,6-5.5,8.9
			c-5.4,8.8-10.9,17.5-16.3,26.3c-8.8,14.2-17.5,28.5-26.2,42.8c-1.1,1.8-2.3,2.4-4.4,2.4c-16.7-0.1-33.5,0-50.2,0
			C913.9,254.4,912.9,254.4,911.3,254.4z"/>
		<path d="M798.1,0c2.8,0.4,5.6,0.8,8.4,1.2c18.9,2.5,36,9.3,50.3,22.3c14,12.8,23,28.4,25.2,47.4c0.8,6.8,1.1,13.8,1.1,20.7
			c0.1,30-0.1,60,0.2,90c0.1,11.2-2.9,21.4-7.6,31.2c-11.5,24.2-31.5,37.8-56.6,44.7c-15.6,4.3-31.6,4.5-47.6,2.5
			c-24.6-3-44.9-14-60.1-33.7c-7.3-9.5-12.2-20.2-14.4-32c-0.8-4.1-1.1-8.3-1.1-12.4c-0.1-30.3-0.1-60.7,0-91
			c0.1-11,0.4-22.1,3.6-32.7c4.3-14.5,12.6-26.6,24.2-36.2c14.8-12.3,32-19.2,51.2-20.9c3.8-0.3,7.6-0.7,11.4-1.1
			C790.1,0,794.1,0,798.1,0z M832.2,130.3C832.2,130.3,832.2,130.3,832.2,130.3c0-17.2-0.1-34.5,0-51.7c0-9.5-4.1-16.6-12-21.6
			c-19-12-38.5-11.5-58.2-1.8c-9.5,4.7-15.5,12.4-15.5,23.5c-0.1,34.9-0.1,69.8,0,104.7c0,8.2,3.5,14.9,10.2,19.9
			c8.5,6.3,18.1,9.2,28.5,10.1c12.4,1.1,24-1.3,34.4-8.5c8.1-5.6,12.6-13.1,12.6-23.1C832.2,164.6,832.2,147.4,832.2,130.3z"/>
		<path d="M622,126c2,2.3,4.5,5,6.8,7.8c7.7,9.7,11.4,21.1,12.8,33.3c1.4,12.8,0.8,25.6-0.6,38.4c-0.9,7.6-3.8,14.5-7.1,21.3
			c-10.1,20.2-27.4,29.8-49.1,31.9c-11.9,1.2-23.9,1-35.9,1c-30.7,0.1-61.3,0-92,0c-1.1,0-2.3,0-4,0c0-4.4,0-8.4,0-12.5
			c0-9.8,0.1-19.7,0.2-29.5c0-15.7,0.1-31.5,0-47.2c0-6.3-0.5-12.6-0.5-18.9c0-8.8,0.3-17.6,0.4-26.4c0.1-9.3-0.1-18.6,0-27.9
			c0.1-27.5,0.2-55,0.2-82.5c0-2,0.1-4-0.1-6c-0.2-2.3,0.6-3,2.9-3c19.7,0.1,39.3,0.1,59,0.1c16.8,0,33.7-0.3,50.5,0.3
			c17.3,0.6,32.8,6.9,45.6,18.8c10.9,10.1,17.8,22.6,20.4,37.2c0.9,4.7,1.3,9.6,1.1,14.4c-0.4,11.9,0.2,23.9-4,35.3
			C626.7,116.6,624.2,121.1,622,126z M503.7,209.4c0.5,0.1,0.8,0.2,1.1,0.2c22.4,0,44.8,0.1,67.2-0.1c6.2-0.1,11.6-2.5,15.1-7.9
			c7.2-11.1,7.2-22.7,1.6-34.4c-2.3-4.9-6.4-8-11.6-9.1c-4.2-0.9-8.6-1.4-12.8-1.4c-19.4-0.1-38.8,0.1-58.2,0.1
			c-2.3,0-2.5,0.8-2.5,2.8c0.1,11.9,0.1,23.8,0.1,35.7C503.7,199.9,503.7,204.5,503.7,209.4z M503.7,55.9c-0.1,0.7-0.2,0.9-0.2,1.1
			c0,15.9,0,31.8-0.1,47.7c0,1.8,0.9,2,2.3,2c8.2-0.1,16.5-0.1,24.7-0.1c11.2,0,22.5,0.1,33.7-0.1c8.4-0.2,13.6-3.9,16.1-11.3
			c3.1-9.1,3.3-18.3,0.2-27.4c-1.7-5.2-5.1-9.1-10.5-10.4c-3.4-0.8-6.9-1.4-10.3-1.5c-17.8-0.1-35.6-0.1-53.5-0.1
			C505.5,55.9,504.7,55.9,503.7,55.9z"/>
		<path d="M226.5,7.1c5.7,0,11.1,0,16.5,0c11.4,0,22.8,0,34.2,0c1.9,0,2.7,0.5,3.3,2.4c9.1,28,18.3,55.9,27.5,83.8
			c1.9,5.9,4,11.8,6,17.7c0.2,0.6,0.5,1.2,1.1,2.4c0.6-1.6,1.1-2.7,1.5-3.8c5-14.9,10.1-29.7,15.1-44.6c6.2-18.5,12.4-37,18.6-55.5
			c0.5-1.3,0.8-2.5,2.8-2.5c16.4,0.1,32.8,0.1,49.2,0.1c0.4,0,0.8,0.1,1.4,0.1c-0.2,0.8-0.4,1.5-0.6,2.2
			C396,30,388.7,50.6,381.5,71.3c-5,14.2-9.8,28.5-14.7,42.6c-4.7,13.5-9.6,27-14.5,40.5c-5.3,14.8-10.6,29.6-15.9,44.4
			c-6.6,18.7-13.1,37.4-19.6,56.2c-0.4,1.2-0.8,2.4-1.5,3.4c-0.4,0.6-1.2,1.3-1.8,1.3c-16.3,0-32.7,0-49-0.1c-0.2,0-0.5-0.1-1-0.3
			c1.2-3.6,2.4-7.2,3.7-10.7c6.8-19.5,13.2-39,20.6-58.3c2.2-5.7,0.2-10-1.4-14.6c-4.2-12-8.6-23.9-12.9-35.9
			c-4.5-12.4-8.9-24.7-13.3-37.1c-7.8-21.9-15.5-43.9-23.2-65.8c-3.3-9.5-6.7-19-10-28.5C226.8,8.1,226.7,7.8,226.5,7.1z"/>
		<path d="M187.2,62.8c-5.7,2.1-11.3,4.1-16.9,6.1c-9.4,3.3-18.8,6.6-28.2,10c-1.8,0.6-2.1-0.2-2.8-1.4c-3-4.8-5.5-10-9.2-14.2
			c-5.8-6.6-13.8-9.8-22.2-11.6C91.1,48.2,75.6,51,61.6,61C54.5,66.1,51,73,51,81.7c-0.1,31.6-0.2,63.1-0.3,94.7
			c0,3.3,0.2,6.7,0.4,10c0.3,8.1,4.4,14.2,10.8,18.8c14.8,10.8,31.2,12.9,48.7,8.2c3.2-0.8,6.3-2.1,9.4-3.3
			c11.4-4.6,18.1-13.2,20.6-25.1c0.1-0.4,0.2-0.8,0.4-1.6c14.6,9.4,29,18.7,43.8,28.2c-3.1,5.2-5.9,10.4-9.2,15.2
			c-12.5,18-29.8,28.7-51,33.8c-14.5,3.5-29.1,4.4-43.9,2.8c-22.5-2.4-42.8-10.2-58.5-27.1c-12-12.9-19.5-28.3-21.8-46
			c-0.5-4-0.2-8.2-0.2-12.2c0-33.2-0.1-66.5,0-99.7c0-8.2,2.2-15.9,5.7-23.3C11.6,42.8,19,31.7,29.4,22.9C40.3,13.8,52.8,8,66.5,4.7
			c13.3-3.2,26.8-3.9,40.2-2.9c22.1,1.6,42.1,9,58.4,24.6c10.2,9.7,17.3,21.4,21.7,34.8C186.9,61.7,187,62.2,187.2,62.8z"/>
	</g>
</g>
</svg>
