<?xml version="1.0" encoding="UTF-8" standalone="no"?>
<svg width="570px" height="92px" viewBox="0 0 570 92" version="1.1" xmlns="http://www.w3.org/2000/svg" xmlns:xlink="http://www.w3.org/1999/xlink">
    <!-- Generator: Sketch 3.6.1 (26313) - http://www.bohemiancoding.com/sketch -->
    <title>Untitled</title>
    <desc>Created with Sketch.</desc>
    <defs></defs>
    <g id="Page-1" stroke="none" stroke-width="1" fill="none" fill-rule="evenodd">
        <g id="logo">
            <g id="Page-1">
                <g id="nhglogo">
                    <path d="M56.8,81 C56.8,86.8 52.1,91.5 46.3,91.5 C40.5,91.5 35.8,86.8 35.8,81 C35.8,75.2 40.5,70.5 46.3,70.5 C52.1,70.4 56.8,75.1 56.8,81 L56.8,81 L56.8,81 Z" id="Shape" fill="#ED1C24"></path>
                    <circle id="Oval" fill="#ED1C24" cx="46.3" cy="11" r="10.5"></circle>
                    <circle id="Oval" fill="#ED1C24" cx="71" cy="70.7" r="10.5"></circle>
                    <circle id="Oval" fill="#ED1C24" cx="21.6" cy="21.3" r="10.5"></circle>
                    <path d="M81.3,35.5 C87.1,35.5 91.8,40.2 91.8,46 C91.8,51.8 87.1,56.5 81.3,56.5 C75.5,56.5 70.8,51.8 70.8,46 C70.7,40.2 75.5,35.5 81.3,35.5 L81.3,35.5 L81.3,35.5 Z" id="Shape" fill="#ED1C24"></path>
                    <circle id="Oval" fill="#ED1C24" cx="11.3" cy="46" r="10.5"></circle>
                    <path d="M63.6,13.8 C67.7,9.7 74.4,9.7 78.5,13.8 C82.6,17.9 82.6,24.6 78.5,28.7 C74.4,32.8 67.7,32.8 63.6,28.7 C59.5,24.6 59.5,17.9 63.6,13.8 L63.6,13.8 L63.6,13.8 Z" id="Shape" fill="#ED1C24"></path>
                    <path d="M14.1,63.3 C18.2,59.2 24.9,59.2 29,63.3 C33.1,67.4 33.1,74.1 29,78.2 C24.9,82.3 18.2,82.3 14.1,78.2 C10,74.1 10,67.4 14.1,63.3 L14.1,63.3 L14.1,63.3 Z" id="Shape" fill="#ED1C24"></path>
                    <path d="M140.3,59.3 L134.4,59.3 C131,53 127.2,46.5 123.2,40.2 L123.2,59.3 L118.5,59.3 L118.5,34 L124.8,34 C128.5,39.8 132.1,46.1 135.5,52.3 L135.5,34 L140.3,34 L140.3,59.3 L140.3,59.3 L140.3,59.3 Z" id="Shape" fill="#000"></path>
                    <path d="M166,33.9 L166,38 L152.4,38 L152.4,43.9 L162.1,43.9 L162.1,48 L152.4,48 L152.4,55.1 L166,55.1 L166,59.2 L147.6,59.2 L147.6,33.9 L166,33.9 L166,33.9 L166,33.9 Z" id="Shape" fill="#000"></path>
                    <path d="M176.5,59.3 L176.5,38.1 L168,38.1 L168,34 L189.9,34 L189.9,38.1 L181.4,38.1 L181.4,59.3 L176.5,59.3 L176.5,59.3 L176.5,59.3 Z" id="Shape" fill="#000"></path>
                    <path d="M199.6,59.3 L199.6,38.1 L191,38.1 L191,34 L213,34 L213,38.1 L204.5,38.1 L204.5,59.3 L199.6,59.3 L199.6,59.3 L199.6,59.3 Z" id="Shape" fill="#000"></path>
                    <path d="M222,59.3 L217.2,59.3 L217.2,34 L222,34 L222,43.7 L232.8,43.7 L232.8,34 L237.5,34 L237.5,59.3 L232.8,59.3 L232.8,48.1 L222,48.1 L222,59.3 L222,59.3 L222,59.3 Z" id="Shape" fill="#000"></path>
                    <path d="M259.4,53 L248.3,53 C247.6,55.3 246.9,57.4 246.3,59.3 L241.3,59.3 C243.7,51.7 247.4,41.5 250.5,34 L258,34 C260.6,42.1 264.3,52.6 267.1,59.3 L261.8,59.3 C261.1,57.5 260.2,55.3 259.4,53 L259.4,53 L259.4,53 Z M253.5,38 C252.2,41.3 250.9,45 249.6,48.8 L258,48.8 C256.7,45.1 255.5,41.2 254.5,38 L253.5,38 L253.5,38 L253.5,38 Z" id="Shape" fill="#000"></path>
                    <path d="M292.3,59.3 L286.4,59.3 C283,53 279.2,46.5 275.2,40.2 L275.2,59.3 L270.5,59.3 L270.5,34 L276.8,34 C280.5,39.8 284.1,46.1 287.5,52.3 L287.5,34 L292.3,34 L292.3,59.3 L292.3,59.3 L292.3,59.3 Z" id="Shape" fill="#000"></path>
                    <path d="M309.3,33.9 C317.3,33.9 321.3,36.6 321.3,46.5 C321.3,56.3 317.4,59.3 309.3,59.3 L299.6,59.3 L299.6,34 L309.3,34 L309.3,33.9 L309.3,33.9 Z M308.8,38.1 L304.4,38.1 L304.4,55.2 L308.8,55.2 C314.4,55.2 316.1,53.8 316.1,46.6 C316.1,39.1 314.4,38.1 308.8,38.1 L308.8,38.1 L308.8,38.1 Z" id="Shape" fill="#000"></path>
                    <path d="M345.7,33.9 L345.7,38 L332.1,38 L332.1,43.9 L341.8,43.9 L341.8,48 L332.1,48 L332.1,55.1 L345.7,55.1 L345.7,59.2 L327.3,59.2 L327.3,33.9 L345.7,33.9 L345.7,33.9 L345.7,33.9 Z" id="Shape" fill="#000"></path>
                    <path d="M355.6,33.9 L355.6,55.1 L367.6,55.1 L367.6,59.3 L350.8,59.3 L350.8,34 L355.6,34 L355.6,33.9 L355.6,33.9 Z" id="Shape" fill="#000"></path>
                    <path d="M385.8,38.6 C384.4,38.1 381.7,37.7 379.1,37.7 C375.1,37.7 373.4,38.5 373.4,41 C373.4,42.9 374.3,43.8 379,44.2 C384.9,44.8 387.5,47 387.5,51.8 C387.5,57.8 383.9,59.8 376.6,59.8 C373.8,59.8 370.7,59.4 368.7,58.7 L369.8,54.6 C371.4,55.1 374.1,55.5 376.6,55.5 C380.6,55.5 382.5,54.8 382.5,52.2 C382.5,50.3 381.6,49.1 376.7,48.7 C371.1,48.2 368.5,46.4 368.5,41.7 C368.5,35.7 372.2,33.4 379.3,33.4 C382.1,33.4 385,33.9 387,34.5 L385.8,38.6 L385.8,38.6 L385.8,38.6 Z" id="Shape" fill="#000"></path>
                    <path d="M408,48.5 L402.5,48.5 L402.5,44.5 L412.9,44.5 L412.9,58.7 C410.8,59.4 406.8,59.8 403.9,59.8 C395.9,59.8 392,56.7 392,46.4 C392,36 396.3,33.3 404.6,33.3 C406.9,33.3 410.3,33.7 412.2,34.2 L411.2,38.4 C409.9,37.9 406.6,37.6 404.9,37.6 C399.2,37.6 397.1,38.5 397.1,46.3 C397.1,54.1 399.2,55.3 404.7,55.3 C405.9,55.3 407.2,55.1 408,54.9 L408,48.5 L408,48.5 L408,48.5 Z" id="Shape" fill="#000"></path>
                    <path d="M441.7,59.3 L435.8,59.3 C431.8,52.4 429.5,49.6 427.8,49.6 L424.4,49.6 L424.4,59.3 L419.6,59.3 L419.6,34 L432.8,34 C438.1,34 439.9,37.3 439.9,41.4 C439.9,45 438.3,48.2 433.2,48.3 C435,48.9 437.2,51.9 441.7,59.3 L441.7,59.3 L441.7,59.3 Z M424.4,45.7 L431.6,45.7 C433.5,45.7 434.5,44.5 434.5,42 C434.5,39.3 433.4,38.1 431.7,38.1 L424.4,38.1 L424.4,45.7 L424.4,45.7 L424.4,45.7 Z" id="Shape" fill="#000"></path>
                    <path d="M467.1,51.6 C467.1,58.3 463.1,59.8 456.4,59.8 C449.8,59.8 445.7,58.3 445.7,51.6 L445.7,33.9 L450.5,33.9 L450.5,50.8 C450.5,54.2 452,55.3 456.3,55.3 C460.4,55.3 462.2,54.4 462.2,50.8 L462.2,33.9 L467,33.9 L467.1,51.6 L467.1,51.6 L467.1,51.6 Z" id="Shape" fill="#000"></path>
                    <path d="M474.1,59.3 L474.1,34 L487.3,34 C492.6,34 494.4,37.7 494.4,42.7 C494.4,47.1 492.3,51 487.5,51 L479,51 L479,59.4 L474.1,59.4 L474.1,59.3 L474.1,59.3 Z M485.9,46.9 C487.9,46.9 489,45.4 489,42.6 C489,39.5 487.9,38 486,38 L478.8,38 L478.8,46.9 L485.9,46.9 L485.9,46.9 L485.9,46.9 Z" id="Shape" fill="#000"></path>
                    <path d="M499.5,59.3 L499.5,34 L512.7,34 C518,34 519.8,37.7 519.8,42.7 C519.8,47.1 517.7,51 512.9,51 L504.4,51 L504.4,59.4 L499.5,59.4 L499.5,59.3 L499.5,59.3 Z M511.3,46.9 C513.3,46.9 514.4,45.4 514.4,42.6 C514.4,39.5 513.3,38 511.4,38 L504.2,38 L504.2,46.9 L511.3,46.9 L511.3,46.9 L511.3,46.9 Z" id="Shape" fill="#000"></path>
                    <path d="M543.3,33.9 L543.3,38 L529.7,38 L529.7,43.9 L539.4,43.9 L539.4,48 L529.7,48 L529.7,55.1 L543.3,55.1 L543.3,59.2 L524.9,59.2 L524.9,33.9 L543.3,33.9 L543.3,33.9 L543.3,33.9 Z" id="Shape" fill="#000"></path>
                    <path d="M570,59.3 L564.1,59.3 C560.7,53 556.9,46.5 552.9,40.2 L552.9,59.3 L548.2,59.3 L548.2,34 L554.5,34 C558.2,39.8 561.8,46.1 565.2,52.3 L565.2,34 L570,34 L570,59.3 L570,59.3 L570,59.3 Z" id="Shape" fill="#000"></path>
                </g>
            </g>
        </g>
    </g>
</svg>
