<?xml version="1.0" encoding="utf-8"?>
<!-- Generator: Adobe Illustrator 22.0.1, SVG Export Plug-In . SVG Version: 6.00 Build 0)  -->
<svg version="1.1" id="svg2759" xmlns="http://www.w3.org/2000/svg" xmlns:xlink="http://www.w3.org/1999/xlink" x="0px" y="0px"
     viewBox="0 0 499.8 91.6" style="enable-background:new 0 0 499.8 91.6;" xml:space="preserve">
<style type="text/css">
	.st0{fill:#0B5ED7;}
</style>
<polygon class="st0" points="142.7,36.8 114.7,36.8 114.7,1.8 87.9,1.8 87.9,89.8 114.7,89.8 114.7,55.2 142.7,55.2 142.7,89.8
	169.5,89.8 169.5,1.8 142.7,1.8 "/>
<rect x="189.4" y="1.8" class="st0" width="26.9" height="88"/>
<path class="st0" d="M32.7,0C22.1,0,9.2,0.7,0,1.8v88h26.8v-21h9.6h0c25,0,40.8-12.9,40.8-35.3C77.2,8.8,60.3,0,32.7,0z M31.3,53
	h-4.4V16.6c1.6-0.1,3-0.1,4.4-0.1c13.2,0,19.5,6.2,19.5,17.3C50.8,45.3,45.2,53,31.3,53z"/>
<path class="st0" d="M457.5,24.3L457.5,24.3c0-4.8,4.8-7,12.5-7c8.5,0,17.7,1.9,23.9,4.4l-2.2-19.2C484.7,1.1,478.4,0,467,0
	c-21.7,0-36.4,8.6-36.4,26.5c0,30.9,41.9,24.7,41.9,39c0,5.5-4.1,8.5-14,8.5c-8.8,0-22.4-2.9-30.5-7l3,20.3
	c8.1,2.9,19.1,4.4,27.9,4.4c22.4,0,40.8-7.4,40.8-29.5C499.8,32.8,457.5,38.3,457.5,24.3z"/>
<polygon class="st0" points="262.9,1.8 236.1,1.8 236.1,89.8 284.6,89.8 288.7,72.1 262.9,72.1 "/>
<path class="st0" d="M378,0c-10.7,0-23.5,0.7-32.7,1.8v88h26.8v-21h9.6c25,0,40.8-12.9,40.8-35.3C422.5,8.8,405.6,0,378,0z
	 M376.6,53h-4.4V16.6c1.6-0.1,3-0.1,4.4-0.1c13.2,0,19.5,6.2,19.5,17.3C396.1,45.3,390.5,53,376.6,53z"/>
<rect x="298.2" y="1.8" class="st0" width="26.8" height="88"/>
</svg>
