<?xml version="1.0" encoding="utf-8"?>
<!-- Generator: Adobe Illustrator 22.0.1, SVG Export Plug-In . SVG Version: 6.00 Build 0)  -->
<svg version="1.1" id="Layer_1" xmlns="http://www.w3.org/2000/svg" xmlns:xlink="http://www.w3.org/1999/xlink" x="0px" y="0px"
	 width="153.4px" height="60px" viewBox="0 0 153.4 60" style="enable-background:new 0 0 153.4 60;" xml:space="preserve">
<style type="text/css">
	.st0{fill:#0D0D2C;}
	.st1{fill:#EF6124;}
	.st2{fill:#0B0B2A;}
	.st3{fill:#0E0E2C;}
	.st4{fill:#E31D50;}
	.st5{fill:#4E6FB4;}
</style>
<g>
	<path class="st0" d="M0.2,40.1c0.5-1,0.5-2.1,0.7-3.1c1.3-6.4,2.5-12.8,3.7-19.3C4.7,17.2,4.9,17,5.5,17c3.2,0.1,6.3-0.1,9.5,0.1
		c0.7,0.1,1.4,0.2,2.1,0.5c2,0.8,2.9,2.3,3,4.3c0.1,1.1,0,2.2-0.3,3.3c-0.8,3.4-3.2,5.4-7,5.9c-0.8,0.1-0.7,0.3-0.4,0.8
		c1.5,2.7,3,5.5,4.4,8.2c0.1,0.2,0.2,0.4,0.3,0.7c-0.7,0-1.4,0-2,0c-0.4,0-0.4-0.3-0.5-0.6c-1.5-2.8-3-5.6-4.4-8.3
		c-0.2-0.5-0.5-0.6-1-0.6c-1.5,0-2.9,0-4.4,0c-0.5,0-0.7,0.1-0.8,0.6c-0.5,2.8-1.1,5.5-1.6,8.2c-0.1,0.5-0.3,0.7-0.8,0.6
		c-0.5-0.1-1,0-1.5,0C0.2,40.6,0.2,40.4,0.2,40.1z M8.5,29.5c0.9,0,1.8,0,2.7,0c2.3-0.1,4.4-0.6,5.7-2.8c0.7-1.3,0.9-2.7,0.9-4.2
		c0-2-0.9-3-2.8-3.3c-2.7-0.4-5.4-0.2-8.1-0.2c-0.3,0-0.4,0.2-0.5,0.5c-0.6,3.2-1.2,6.3-1.8,9.5c-0.1,0.5,0.1,0.6,0.5,0.6
		C6.2,29.4,7.4,29.5,8.5,29.5z"/>
	<path class="st1" d="M130,36.1c1.6,0,3.3,0,4.9,0c1.4,0,2.9,0,4.3,0c0.5,0,0.6,0.1,0.5,0.6c-0.3,1.2-0.5,2.4-0.7,3.6
		c-0.1,0.4-0.2,0.6-0.7,0.6c-5.4,0-10.9,0-16.3,0c-0.4,0-0.5-0.1-0.5-0.6c0.2-2.8,1.8-4.7,4-6.2c2.2-1.6,4.7-2.7,6.9-4.2
		c1-0.6,1.9-1.3,2.7-2.3c0.6-0.8,1-1.6,1-2.6c0-1-0.6-1.7-1.6-1.8c-2-0.2-3.3,0.6-3.9,2.5c-0.2,0.5-0.4,0.7-0.9,0.7
		c-1.4,0-2.9,0-4.3,0c-0.6,0-0.7-0.2-0.5-0.7c1.1-4.2,4.5-7.1,8.9-7.2c1.1,0,2.2,0,3.4,0.2c5.2,1.1,5.8,5.7,4,9.2
		c-1,1.9-2.6,3.1-4.4,4.3c-1.8,1.1-3.7,2-5.5,3c-0.4,0.2-0.9,0.5-1.3,0.8C129.9,36,129.9,36,130,36.1z"/>
	<path class="st1" d="M106.9,36.4c-1.5,0-2.9,0-4.4,0c-0.5,0-0.6-0.1-0.5-0.6c0.3-1.2,0.5-2.3,0.7-3.5c0.1-0.6,0.4-1,0.8-1.4
		c3.9-3.8,7.8-7.6,11.7-11.5c0.5-0.5,1-0.7,1.7-0.7c1.2,0.1,2.5,0,3.7,0c0.5,0,0.7,0.1,0.5,0.6c-0.8,3.9-1.5,7.8-2.3,11.7
		c-0.1,0.5,0,0.6,0.5,0.6c0.6,0,1.1,0,1.7,0c0.4,0,0.5,0.1,0.5,0.5c-0.3,1.2-0.5,2.5-0.7,3.7c-0.1,0.4-0.3,0.5-0.6,0.5
		c-0.5,0-1.1,0-1.6,0c-0.5,0-0.7,0.1-0.8,0.6c-0.2,1.1-0.4,2.2-0.6,3.3c-0.1,0.4-0.2,0.5-0.6,0.5c-1.6,0-3.2,0-4.8,0
		c-0.5,0-0.5-0.1-0.4-0.6c0.3-1.1,0.4-2.2,0.7-3.3c0.1-0.5,0-0.6-0.5-0.6C109.9,36.4,108.4,36.4,106.9,36.4z M108,31.7
		c0.6,0,1.6,0,2.5,0c0.8,0,1.8,0.3,2.3-0.1c0.4-0.4,0.4-1.4,0.5-2.1c0,0,0-0.1,0-0.1c0.2-1.3,0.5-2.6,0.7-3.9
		c-0.1,0-0.1-0.1-0.2-0.1C111.9,27.5,109.9,29.7,108,31.7z"/>
	<path class="st0" d="M82.6,38.5c0,0.1,0,0.1,0,0.1c0,1.3-0.6,1.9-1.9,2.2c-2.3,0.5-4.6,0.7-7,0.1c-2.5-0.7-3.9-2.5-4.1-5.1
		c-0.2-3,0.3-5.8,1.9-8.4c2.1-3.5,6.2-5,10.1-3.9c2.3,0.7,3.6,2.7,3.5,5.5c-0.1,1.3-0.3,2.5-0.5,3.7c-0.1,0.5-0.4,0.5-0.8,0.5
		c-3.8,0-7.5,0-11.3,0c-0.7,0-1,0.2-1,0.9c0,0.4-0.1,0.7,0,1.1c0.1,2.6,1.4,4,4,4.3C78,39.7,80.3,39.2,82.6,38.5z M77.5,31.3
		c1.6,0,3.3,0,4.9,0c0.5,0,0.6-0.1,0.7-0.6c0.1-0.8,0.3-1.7,0.2-2.5c-0.1-1.9-1-3-2.8-3.2c-1.2-0.2-2.3-0.1-3.5,0.2
		c-2.7,0.8-4,3-4.7,5.5c-0.2,0.5,0,0.6,0.5,0.6C74.3,31.3,75.9,31.3,77.5,31.3z"/>
	<path class="st2" d="M37,29.9c0,2.5-0.5,4.9-1.8,7.1c-2.4,4-6.8,4.8-10.2,3.9c-2.1-0.6-3.6-2.1-3.9-4.3c-0.7-4,0.1-7.8,2.9-10.9
		c2.5-2.7,5.8-3.3,9.3-2.2c2.3,0.7,3.4,2.6,3.7,5C37.1,29,37,29.5,37,29.9z M23,34.4c0,0.2,0,0.4,0,0.6c0.1,2.2,1.2,3.8,3.2,4.2
		c2.4,0.6,4.6,0,6.3-1.9c2.2-2.5,2.8-5.6,2.4-8.8c-0.2-2.1-1.5-3.4-3.6-3.6c-2.7-0.3-4.9,0.5-6.4,2.8C23.5,29.8,23.1,32,23,34.4z"/>
	<path class="st0" d="M51.9,40.9c-0.2,0-0.4,0-0.5,0c-0.3,0-0.4-0.1-0.4-0.4c0.1-0.5,0.2-1.1,0.3-1.7c0-0.2,0.2-0.4-0.1-0.5
		c-0.2-0.1-0.3,0.2-0.4,0.3c-1.1,1.3-2.5,2.2-4.2,2.5c-1.3,0.3-2.5,0.2-3.8-0.1c-1.9-0.6-3-2.3-2.8-4.5c0.2-2.3,0.8-4.6,1.2-6.8
		c0.3-1.8,0.7-3.6,1-5.4c0.1-0.6,0.4-0.8,1-0.8c1.2,0.1,1.2,0,1,1.2c-0.7,3.5-1.4,7.1-2.1,10.6c0,0.1,0,0.1-0.1,0.2
		c-0.4,2.7,0.7,3.9,3.4,3.9c3.4-0.1,6-2.4,6.7-5.9c0.6-3.1,1.2-6.3,1.8-9.4c0.1-0.5,0.3-0.6,0.7-0.6c1.4,0,1.4,0,1.1,1.3
		c-1,5.1-2,10.2-2.9,15.4C53,41.1,52.4,40.8,51.9,40.9z M51.2,38.2c0,0,0.1,0.1,0.1,0.1c0-0.1,0.1-0.1,0.1-0.2c0,0-0.1-0.1-0.1-0.1
		C51.3,38.1,51.3,38.1,51.2,38.2z"/>
	<path class="st3" d="M66.3,39c-0.4,2,0.1,1.7-2,2.1c-0.7,0.1-1.4,0.1-2.1,0c-1.9-0.3-2.9-1.6-2.5-3.6c0.7-3.7,1.4-7.4,2.2-11.2
		c0.2-1.1,0.2-1.1-0.9-1.1c-1.5,0-1.4,0-1.1-1.4c0.1-0.3,0.2-0.4,0.5-0.4c0.7-0.1,1.5,0.3,2-0.2c0.4-0.5,0.4-1.3,0.6-1.9
		c0.2-0.7,0.3-1.5,0.5-2.2c0.1-0.2,0-0.5,0.3-0.5c0.5,0,1-0.1,1.4,0.1c0.2,0.1,0,0.4,0,0.6c-0.2,1.2-0.5,2.5-0.7,3.7
		c-0.1,0.4,0,0.5,0.4,0.5c1.2,0,2.4,0,3.7,0c0.5,0,0.8,0,0.5,0.6c0,0.1-0.1,0.3-0.1,0.4c0,0.7-0.3,0.9-1,0.8c-1.1-0.1-2.3,0-3.4,0
		c-0.4,0-0.6,0.1-0.7,0.5c-0.7,3.7-1.5,7.5-2.2,11.2c-0.3,1.6,0.4,2.3,2.1,2.3C64.6,39.3,65.4,39.1,66.3,39z"/>
	<path class="st4" d="M142.6,9.5c-0.1-0.1-0.2-0.2-0.3-0.4c-4-4.3-8.9-7.1-14.7-8.4c-1.1-0.2-2.1-0.2-3.2-0.6c-1.9,0-3.8,0-5.7,0
		c-0.8,0.3-1.7,0.3-2.6,0.5c-21.1,4.1-30,29.5-16.1,45.9c0.4,0.5,0.9,1,1.4,1.5c0.5,0.5,1,0.9,1.5,1.4c0.1-0.4-0.2-0.5-0.3-0.7
		c-4.9-6.9-6.6-14.5-4.9-22.7c3.5-16.7,21.3-26.4,37.3-20.4c2.7,1,5.1,2.4,7.4,4.1c0.1,0.1,0.2,0.2,0.3,0.2
		C142.9,9.7,142.7,9.6,142.6,9.5z"/>
	<g>
		<path class="st5" d="M153.2,27.7c-1.3-6.8-6.3-15.6-9.3-16.5c0.4,0.6,0.8,1.2,1.2,1.8c4,6.2,5.4,12.9,4.2,20.1
			c-1.1,6.7-4.3,12.3-9.5,16.7c-7.9,6.5-16.8,8.3-26.7,5.4c-3.1-0.9-5.9-2.5-8.6-4.4l0,0c-0.1,0-0.1-0.1-0.2-0.1
			c-0.1-0.1-0.2-0.2-0.3-0.1c0.1,0.1,0.1,0.1,0.2,0.2c0,0,0,0,0,0c0,0,0.1,0.1,0.1,0.1c0.1,0.1,0.1,0.2,0.2,0.3
			c3.8,4.1,8.5,6.8,13.9,8.2c1.2,0.3,2.4,0.3,3.6,0.8c1.9,0,3.9,0,5.8,0c1.3-0.3,2.7-0.4,4-0.8c11.6-3.2,18.6-10.7,21.1-22.5
			c0.2-0.7,0-1.5,0.4-2.2c0-1.8,0-3.7,0-5.5C153.2,28.8,153.3,28.2,153.2,27.7z"/>
		<path class="st5" d="M144,11c0,0-0.1,0-0.1-0.1c0,0-0.1,0.1-0.1,0.1C143.8,11,143.9,11,144,11C144,11.1,144,11,144,11z"/>
	</g>
</g>
</svg>
